<svg xmlns="http://www.w3.org/2000/svg" xmlns:xlink="http://www.w3.org/1999/xlink" width="298" height="235.83" viewBox="0 0 298 235.83"><defs><linearGradient id="a" y1="0.5" x2="1" y2="0.5" gradientUnits="objectBoundingBox"><stop offset="0" stop-color="#d31c5c"/><stop offset="1"/></linearGradient><linearGradient id="b" x1="0" y1="0.5" x2="1" y2="0.5" xlink:href="#a"/></defs><g transform="translate(-0.007)"><g transform="translate(0.007)"><path d="M297.858,126.818,287.585,55.969a12.775,12.775,0,0,0-14.57-10.7l-24.549,2.95C227.194,17.409,192.349,0,152.073,0,98.987,0,55.514,33,40.733,81.246L10.859,85.621a12.774,12.774,0,0,0-10.7,14.572l10.94,72.23a12.783,12.783,0,0,0,12.637,10.855,12.978,12.978,0,0,0,1.963-.15l24.389-3.749c20.248,35.773,57.949,56.451,101.989,56.451,56.749,0,104.128-38.009,115.376-91.412l19.714-3.026a12.79,12.79,0,0,0,10.695-14.574Z" transform="translate(-0.007)" fill="#fff"/><path d="M138.02,278.363c0,.019.008.038.011.057s0,.013-.007.019-.023-.017-.022-.023a.273.273,0,0,1,.023-.05Z" transform="translate(-83.763 -168.953)"/><path d="M115.252,292.406l0-.013,0,.013Z" transform="translate(-69.955 -177.468)"/><path d="M261.883,355.046c.054.059.124.11.1.206l0,0-.1-.208Z" transform="translate(-158.953 -215.492)"/><path d="M261.755,354.706l-.024-.014,0,.019.026-.005Z" transform="translate(-158.859 -215.281)"/><path d="M261.834,354.851c-.052-.028-.034-.079-.039-.122h0l.035.128Z" transform="translate(-158.899 -215.303)"/><path d="M253.83,265.5a1.065,1.065,0,0,1,.022-.164,6.9,6.9,0,0,1,.59-1.5c.08-.142.145-.292.22-.437a.407.407,0,0,1,.066-.075l0,0c.027.06-.007.112-.027.162-.089.231-.177.463-.273.691-.172.411-.35.82-.526,1.229-.016.036-.019.085-.071.095Z" transform="translate(-154.062 -159.821)"/><path d="M245.11,313.584l.04.126-.024.005-.016-.131Z" transform="translate(-148.772 -190.33)"/><path d="M203.713,358.6l.04.083-.023.008c0-.029-.007-.058-.012-.088Z" transform="translate(-123.646 -217.65)"/><path d="M166.126,368.366l.021.075-.018,0c0-.024,0-.049,0-.074Z" transform="translate(-100.833 -223.58)"/><path d="M256.11,263.252c-.007-.022-.017-.056.017-.047s.016.043-.022.044Z" transform="translate(-155.445 -159.751)"/><path d="M253.774,268.858c.014.039.02.075-.033.09l.005,0c-.007-.037-.016-.074.032-.091Z" transform="translate(-154.011 -163.184)"/><path d="M261.58,372.634l.052-.041.01.02-.062.02Z" transform="translate(-158.768 -226.146)"/><path d="M470.5,306.915c.007.09-.065.136-.116.229.034-.144.033-.145.121-.225Z" transform="translate(-285.503 -186.282)"/><path d="M470.126,307.788s0-.011,0-.013l.024-.016a.066.066,0,0,1-.007.018A.062.062,0,0,1,470.126,307.788Z" transform="translate(-285.345 -186.795)"/><path d="M495.646,235.1c-.03.078-.04.166-.114.222l0,0a.2.2,0,0,1,.115-.221Z" transform="translate(-300.766 -142.695)"/><path d="M471.277,306.072c-.016-.074.034-.11.085-.145-.011.058-.021.118-.088.143Z" transform="translate(-286.043 -185.683)"/><path d="M495.423,235.667a.117.117,0,0,1-.07.14l0,0a.113.113,0,0,1,.07-.14Z" transform="translate(-300.657 -143.038)"/><path d="M495.816,235.028a.106.106,0,0,1-.014-.036c0-.006.015-.013.023-.019s.007.013.005.018a.314.314,0,0,1-.021.033Z" transform="translate(-300.93 -142.617)"/><path d="M496.038,234.529c-.008.01-.017.02-.026.029l-.012-.006.043-.019Z" transform="translate(-301.05 -142.348)"/><path d="M496.1,234.461l-.007-.051s.012.006.012.008-.007.025-.011.038Z" transform="translate(-301.106 -142.275)"/><path d="M496.277,234l-.01,0,0-.015Z" transform="translate(-301.212 -142.019)"/><path d="M487.3,334.475l.035.011-.017.022-.014-.038Z" transform="translate(-295.772 -203.007)"/><path d="M485.345,251.019a.518.518,0,0,1-.032.12q-.436.809-.876,1.615a4.613,4.613,0,0,1-.426.567.429.429,0,0,1,.012-.1q.637-1.08,1.277-2.158c.009-.016.033-.024.049-.035Z" transform="translate(-293.774 -152.356)"/><path d="M487.582,250.184a.57.57,0,0,1-.179.328l0,0a.584.584,0,0,1,.177-.329Z" transform="translate(-295.832 -151.849)"/><path d="M195.362,292.785l0-.054-.706-.535c-.033.051.047.1,0,.158a.231.231,0,0,1-.067-.025c-.09-.07-.18-.14-.264-.217-.541-.5-1.036-1.039-1.535-1.578a9.94,9.94,0,0,1-1.485-2.21,15,15,0,0,1-.916-2.162c-.011-.032-.027-.063-.045-.106-.066.032-.078.09-.1.137q-.427.956-.852,1.914c-.486,1.094-.967,2.19-1.461,3.28a11.326,11.326,0,0,0-.505,1.361c-.1.34-.212.68-.332,1.016a3.47,3.47,0,0,1-.514.98,1.78,1.78,0,0,1-.91.641,7.2,7.2,0,0,1-1.245.3,1.961,1.961,0,0,1-.575-.011.866.866,0,0,1-.219-.076,3.39,3.39,0,0,0,.724-.014c-.063-.012-.126-.027-.19-.034a3.3,3.3,0,0,1-.991-.244.1.1,0,0,0-.118,0c-.016.012-.066-.01-.1-.026-.124-.07-.247-.142-.368-.218-.217-.136-.432-.277-.65-.412a1.022,1.022,0,0,1-.278-.261,3.329,3.329,0,0,1-.514-1.027,6.085,6.085,0,0,1-.255-1.557,16.373,16.373,0,0,1,.106-2.282c.007-.078.012-.156.017-.234,0,0-.007-.01-.02-.028-.031.063-.06.118-.085.175a53.987,53.987,0,0,1-2.547,5.033c-.577.991-1.179,1.969-1.839,2.908a9.9,9.9,0,0,1-1.258,1.48,5.39,5.39,0,0,1-1.48,1.038,3.454,3.454,0,0,1-3.093-.045,4.893,4.893,0,0,1-1.336-.984,6.282,6.282,0,0,1-.986-1.312,10.838,10.838,0,0,1-.96-2.187,11.7,11.7,0,0,1-.311-1.265,14.807,14.807,0,0,1-.206-3.321,30.993,30.993,0,0,1,.483-4.049c.045-.26.093-.519.142-.778a1.059,1.059,0,0,0,.012-.318c-.018-.17-.026-.341-.037-.511-.006-.084-.009-.168-.015-.284-.04.038-.064.051-.075.072-.5.915-.992,1.829-1.482,2.746-.269.5-.488,1.03-.71,1.555-.177.42-.353.841-.532,1.26a15.271,15.271,0,0,1-1.229,2.32c-.884,1.364-1.8,2.706-2.813,3.978a12,12,0,0,1-1.064,1.2c-.169.162-.353.31-.536.457a1.013,1.013,0,0,1-.36.184.278.278,0,0,1-.3-.065.756.756,0,0,1,.209-.156c.068-.051.142-.1.21-.146a.547.547,0,0,0,.188-.192c-.075,0-.108.047-.151.074s-.1.074-.159.108-.1.059-.147.087-.1.056-.151.081-.116.053-.175.078-.106.042-.159.062-.107.039-.162.056-.123.037-.185.053-.111.024-.167.034-.112.02-.169.027-.127.015-.191.021-.114.011-.17.014-.114,0-.171,0-.128,0-.192-.006l-.191-.01.163.136a1.027,1.027,0,0,1-.36.044,1.748,1.748,0,0,1-.7-.184,3.042,3.042,0,0,1-.686-.469,6.645,6.645,0,0,1-1.175-1.433,6.554,6.554,0,0,1-.784-1.863c-.038-.144-.073-.29-.105-.436a.333.333,0,0,0-.1-.2l-.224-1.825c.074-.077.049-.173.049-.264,0-.434-.007-.869,0-1.3a21.325,21.325,0,0,1,.185-2.192,31.5,31.5,0,0,1,1.585-6.68,24.383,24.383,0,0,1,1.166-2.753,17.918,17.918,0,0,1,1.1-1.908,5.956,5.956,0,0,1,.726-.866,4.725,4.725,0,0,1,.921-.724c.1-.059.19-.125.284-.19a2.384,2.384,0,0,0,.43-.381,9.222,9.222,0,0,1,.842-.849,3.637,3.637,0,0,1,1.2-.726,3.711,3.711,0,0,1,3.3.355,5.212,5.212,0,0,1,1.089.923,9.145,9.145,0,0,1,1.2,1.686,16.893,16.893,0,0,1,.941,1.964c.03.072.062.143.1.214,0,.01.022.014.044.026.038-.057.079-.114.116-.174A12.213,12.213,0,0,1,168.958,277a6.382,6.382,0,0,1,1.164-1.064,3.64,3.64,0,0,1,1.09-.528,2.511,2.511,0,0,1,1.573.067,3.391,3.391,0,0,1,.942.54,4.4,4.4,0,0,1,.718.7,2.235,2.235,0,0,1,.519,1.33,2.431,2.431,0,0,1-.067.7c-.068.269-.141.538-.233.8-.182.517-.384,1.028-.568,1.544a30.152,30.152,0,0,0-1.412,5.759c-.02.133-.042.266-.062.4,0,.03.008.059.012.088l.023-.008-.04-.083c.023-.01.059-.014.067-.031.03-.064.048-.134.077-.2s.054-.134.134-.155c.07.029.059.1.058.147,0,.214,0,.428-.021.641-.059.76-.124,1.519-.187,2.279-.07.838-.123,1.677-.135,2.518a12.155,12.155,0,0,0,.082,1.813,3.4,3.4,0,0,0,.175.747,1.657,1.657,0,0,0,.159.325.556.556,0,0,0,.743.228,1.366,1.366,0,0,0,.4-.244c.17-.151.34-.3.495-.471a11.366,11.366,0,0,0,1.1-1.445c.539-.806,1.022-1.647,1.5-2.49,1.019-1.8,1.948-3.645,2.875-5.492.579-1.153,1.11-2.328,1.66-3.494a.77.77,0,0,0,.066-.245c.123-1.19.218-2.383.267-3.579.023-.555.08-1.108.129-1.662q.293-3.3.909-6.559c.328-1.728.66-3.456,1.056-5.171.191-.826.366-1.655.56-2.48.1-.409.216-.812.332-1.216a4.238,4.238,0,0,1,.159-.419.731.731,0,0,1,.077-.127c.007-.01.024-.013.052-.026a5.51,5.51,0,0,1-.083.568,1.819,1.819,0,0,0-.029.57c.021-.088.044-.176.064-.265.175-.815.343-1.631.526-2.444.1-.437.229-.867.333-1.3.068-.284.126-.571.167-.859a8.626,8.626,0,0,1,.408-1.656c.239-.679.463-1.363.686-2.047.128-.393.237-.792.361-1.186.338-1.067.735-2.113,1.171-3.143.336-.794.674-1.587,1.067-2.356a16.43,16.43,0,0,1,1.323-2.195,9.284,9.284,0,0,1,2.168-2.2,5.177,5.177,0,0,1,1.14-.624,4.079,4.079,0,0,1,2.623-.086,5.768,5.768,0,0,1,1.793.886,8.893,8.893,0,0,1,2.674,3.038,5.5,5.5,0,0,1,.477,1.187,4.491,4.491,0,0,1,.106,1.843,16.651,16.651,0,0,1-.43,1.917,24.262,24.262,0,0,1-2.368,5.733c-.217.376-.454.741-.693,1.1a12.315,12.315,0,0,0-.894,1.629c-.328.712-.611,1.443-.9,2.173q-.144.368-.29.736c-.268.676-.557,1.343-.886,1.991-.745,1.468-1.478,2.942-2.233,4.4-1.054,2.04-2.232,4.01-3.452,5.954-.3.483-.6.969-.917,1.443a8.329,8.329,0,0,0-1.292,3.276c-.2,1.2-.4,2.4-.59,3.606q-.464,2.945-.8,5.908c-.011.1-.02.2-.031.309.074-.034.082-.093.1-.14q.442-1.043.881-2.087c.124-.3.239-.6.375-.885.152-.322.318-.638.487-.951.139-.257.292-.506.439-.759a1.06,1.06,0,0,0,.068-.132c.221-.549.472-1.085.734-1.615a.32.32,0,0,0,.036-.118.781.781,0,0,0-.175.225c-.059.089-.116.179-.174.269l-.162.252c-.058.09-.114.181-.174.27a1.139,1.139,0,0,1-.169.239c-.058-.026-.048-.074-.048-.112a1.424,1.424,0,0,1,.078-.483c.082-.228.165-.456.264-.676a12.093,12.093,0,0,1,.662-1.221c.215-.361.409-.734.6-1.11.383-.764.79-1.517,1.179-2.278a45.547,45.547,0,0,1,2.7-4.532,33.126,33.126,0,0,1,4.3-5.247,15.4,15.4,0,0,1,2.06-1.73,8.131,8.131,0,0,1,1.745-.939,4.952,4.952,0,0,1,1.221-.3,3.671,3.671,0,0,1,2.464.589,4.851,4.851,0,0,1,1.059.925,3.555,3.555,0,0,1,.849,2.656,5.68,5.68,0,0,1-.424,1.715,10.546,10.546,0,0,1-1.038,1.913,17.585,17.585,0,0,1-1.953,2.375,29.591,29.591,0,0,1-3.073,2.78q-2.039,1.609-4.2,3.058-.895.6-1.842,1.123c-.255.14-.525.256-.786.386-.108.054-.214.113-.32.172a.773.773,0,0,0-.091.072c.008.047.013.1.025.142.057.213.122.425.172.64.034.145.051.294.072.443a.189.189,0,0,1-.042.172.294.294,0,0,1-.084-.037.79.79,0,0,0-.171-.133c.065.2.128.4.2.6a16.881,16.881,0,0,0,1.26,2.873,9.993,9.993,0,0,0,1.523,2.081c.06.061.121.121.183.18a.6.6,0,0,0,.067.047.324.324,0,0,0-.087-.17c-.428-.639-.861-1.275-1.281-1.919-.194-.3-.364-.611-.544-.918l0,0c.018,0,.045,0,.054.013.039.05.074.1.11.158a20.754,20.754,0,0,0,1.872,2.413,7.018,7.018,0,0,0,.751.729c.116.094.24.178.364.261a.793.793,0,0,0,.594.12,5.642,5.642,0,0,0,.873-.2,4.465,4.465,0,0,0,1.143-.617,7.733,7.733,0,0,0,1.17-1.061c.426-.47.843-.948,1.256-1.429a13.67,13.67,0,0,1,1.284-1.314q1.046-.93,2.083-1.872a15.325,15.325,0,0,0,1.286-1.313c.06-.069.117-.141.2-.241-.136.019-.231.078-.333.052a.288.288,0,0,1,.04-.23,4.7,4.7,0,0,1,.22-.439c.266-.447.527-.9.812-1.333.514-.788,1.042-1.566,1.568-2.346a1.011,1.011,0,0,0,.153-.348,26.1,26.1,0,0,1,3.941-8.968,10.578,10.578,0,0,1,1.933-2.132,7.155,7.155,0,0,1,2.212-1.269,6.593,6.593,0,0,1,1.989-.368,7.5,7.5,0,0,1,2.587.38,4.936,4.936,0,0,1,1.507.791,3.46,3.46,0,0,1,1.153,1.637,4.765,4.765,0,0,1,.237,1.706,7.5,7.5,0,0,1-.623,2.713,12.458,12.458,0,0,1-1.325,2.34,21.973,21.973,0,0,1-1.591,1.984c-.726.814-1.464,1.617-2.268,2.356a9.765,9.765,0,0,1-1.813,1.386c-.36.2-.727.393-1.093.583-.3.157-.611.308-.918.457a3.308,3.308,0,0,1-.392.168.562.562,0,0,0-.362.364,2.015,2.015,0,0,0-.124.839c.006.107.014.214.03.319a5.882,5.882,0,0,1,.023,1.386c-.056.653-.127,1.3-.183,1.957-.062.731-.127,1.462-.169,2.194a9.159,9.159,0,0,0,.133,2.278,4.628,4.628,0,0,0,.277.919,1.562,1.562,0,0,0,.253.419,1.028,1.028,0,0,0,.892.369,2.34,2.34,0,0,0,.821-.22,5.824,5.824,0,0,0,.988-.592,14.8,14.8,0,0,0,1.784-1.561c.65-.651,1.256-1.342,1.854-2.041.571-.667,1.087-1.376,1.621-2.07.213-.277.411-.564.615-.848.042-.058.078-.119.12-.177a1.093,1.093,0,0,0,.2-.577.8.8,0,0,1,.092-.3,20.872,20.872,0,0,1,1.182-2.056c.462-.72.934-1.433,1.4-2.153.694-1.08,1.329-2.195,1.96-3.311.274-.484.544-.969.792-1.467a5.7,5.7,0,0,1,.7-1.124,3.08,3.08,0,0,1,.327-.336,1.224,1.224,0,0,1,.268-.173.7.7,0,0,1,.714.038,1.288,1.288,0,0,1,.427.412.3.3,0,0,0,.047.07.67.67,0,0,1,.185.682,1.185,1.185,0,0,1-.167.391l-2.939,5.018c-.545.928-1.1,1.851-1.645,2.778-.442.75-.939,1.463-1.429,2.181q-.44.645-.867,1.3c-.389.6-.714,1.233-1.052,1.861-.358.665-.715,1.331-1.109,1.976a14.174,14.174,0,0,1-.858,1.252,22.517,22.517,0,0,1-1.672,1.972,12.012,12.012,0,0,1-1.573,1.38,4.355,4.355,0,0,1-1.371.68,3.92,3.92,0,0,1-1.183.151,7.716,7.716,0,0,1-3.352-.913,9.593,9.593,0,0,1-2.373-1.77,1.789,1.789,0,0,1-.47-.8,10.935,10.935,0,0,1-.3-1.378,4.762,4.762,0,0,1,.007-1.151c.033-.34.053-.682.091-1.021.033-.3.076-.593.125-.888.067-.4.16-.8.19-1.2.019-.256.021-.513.042-.768q.065-.788.142-1.575a4.4,4.4,0,0,0-.018-1.108c-.013-.084-.021-.17-.032-.255a6.85,6.85,0,0,1-.086-1.641c-.01,0-.023,0-.027.008a.125.125,0,0,0-.014.04c-.111.529-.223,1.059-.332,1.589-.021.1-.032.211-.046.317a5.5,5.5,0,0,1-.224,1,5.242,5.242,0,0,0-.241,1.039,4.219,4.219,0,0,0,.014.917c.033.312.064.624.1.936a2.7,2.7,0,0,1-.006.554q-.042.425-.062.852a2.093,2.093,0,0,0,.155.962,1,1,0,0,1,.086.562,3.644,3.644,0,0,0,.169,1.518q.092.34.18.682a.348.348,0,0,1,.005.063c-.06.017-.073-.034-.095-.065a5.691,5.691,0,0,1-.8-1.716,8.387,8.387,0,0,1-.276-2.071c-.018-.763.03-1.524.057-2.286s.061-1.523.093-2.285c.006-.135.016-.27.022-.405,0-.056,0-.112,0-.194a.457.457,0,0,0-.076.063c-.82,1.2-1.7,2.358-2.535,3.548a14.266,14.266,0,0,1-1.684,2.016,5.515,5.515,0,0,1-.465.408c-.6.464-1.2.92-1.793,1.385-.281.219-.552.45-.844.689l-.086-.018-.1.113c0,.022-.007.031,0,.036.022.035.045.069.076.114-.044.065-.083.131-.131.192a2.893,2.893,0,0,1-.515.511c-.22.169-.444.334-.677.484-.293.189-.6.359-.9.543-.26.161-.517.328-.773.5-.238.156-.472.32-.711.473a2.841,2.841,0,0,1-.656.307,1.142,1.142,0,0,1-.505.053,8.46,8.46,0,0,1-2.046-.515,3.7,3.7,0,0,1-.458-.23.6.6,0,0,1-.232-.217.213.213,0,0,1-.027-.183c.025-.074.07-.082.157-.022l.062-.02-.01-.02ZM193.217,249.8a.4.4,0,0,0-.066.075c-.075.145-.14.3-.22.437a6.891,6.891,0,0,0-.59,1.5,1.07,1.07,0,0,0-.022.164c-.048.017-.039.054-.032.091a1.189,1.189,0,0,0-.067.151c-.113.382-.229.763-.333,1.148-.337,1.25-.662,2.5-1.007,3.752q-.631,2.287-1.032,4.623c-.411,2.364-.677,4.747-.887,7.136-.02.226-.048.451-.072.677l.016.131.024-.005-.04-.127c.019-.007.053-.01.056-.021a1.65,1.65,0,0,0,.037-.188c.268-1.789.582-3.569.922-5.346q.519-2.717,1.041-5.433c.407-2.14.8-4.284,1.334-6.4a.475.475,0,0,0,0-.1c.053-.015.046-.051.033-.09.053-.01.056-.059.071-.095.177-.409.354-.818.526-1.229.1-.228.184-.46.273-.691.02-.051.053-.1.027-.162.038,0,.042-.039.022-.044s-.024.025-.017.047Zm-35.373,41.285c.017-.012.043-.021.048-.036a1.065,1.065,0,0,0,.031-.146c.306-1.812.674-3.612,1.072-5.406.324-1.46.671-2.915,1.093-4.351a16.3,16.3,0,0,1,.624-1.818c.081-.19.178-.372.274-.555a.672.672,0,0,1,.2-.239c-.04.1-.092.187-.138.28a8.24,8.24,0,0,0-.42,1.051c-.266.783-.49,1.578-.7,2.377-.5,1.88-.931,3.775-1.334,5.678a32.158,32.158,0,0,0-.569,3.542,9.843,9.843,0,0,0-.044,1.494,2.508,2.508,0,0,0,.158.793.705.705,0,0,0,.2.3.356.356,0,0,0,.416.067,2.036,2.036,0,0,0,.307-.19,3.126,3.126,0,0,0,.477-.488,11.386,11.386,0,0,0,.931-1.329c.141-.231.273-.468.417-.7.629-.994,1.236-2,1.8-3.033s1.095-2.065,1.658-3.089c.508-.924.942-1.887,1.449-2.811.031-.056.052-.117.083-.174a1.218,1.218,0,0,0,.109-.851,1.913,1.913,0,0,0-.1-.347q-.326-.79-.661-1.576c-.22-.518-.444-1.034-.624-1.568a2.05,2.05,0,0,1-.135-.581.452.452,0,0,1,.023-.1.412.412,0,0,1,.16.213c.178.357.351.716.527,1.074.04.082.083.162.124.243a.113.113,0,0,0,.01-.09c-.13-.369-.253-.741-.4-1.106a4.088,4.088,0,0,0-.477-.905,1.7,1.7,0,0,0-.417-.425.846.846,0,0,0-.671-.139,2.013,2.013,0,0,0-.58.21,2.823,2.823,0,0,0-.61.465,4.847,4.847,0,0,0-.63.781,10.4,10.4,0,0,0-.909,1.764c-.249.6-.461,1.211-.664,1.827a50.012,50.012,0,0,0-1.54,5.733,29.3,29.3,0,0,0-.558,4.169v.073l.018,0ZM193,263.856l-.021,0c.023-.066.042-.133.07-.2.1-.221.193-.445.306-.659.176-.334.366-.661.548-.992.172-.312.358-.618.507-.941.674-1.47,1.36-2.935,1.992-4.425.6-1.41,1.175-2.83,1.662-4.283.208-.621.409-1.245.619-1.866.228-.675.453-1.351.63-2.042a9.882,9.882,0,0,0,.347-2.126,3.6,3.6,0,0,0-.118-1.144,1.739,1.739,0,0,0-.627-.944,1.1,1.1,0,0,0-1.092-.153,1.959,1.959,0,0,0-.485.267,3.882,3.882,0,0,0-.61.566,8.279,8.279,0,0,0-.96,1.36,24.118,24.118,0,0,0-1.392,2.815A35.59,35.59,0,0,0,193,253.069c-.739,2.6-1.386,5.233-1.962,7.879-.5,2.3-.913,4.626-1.287,6.954-.174,1.083-.339,2.167-.5,3.252a.333.333,0,0,0,0,.224c.042-.063.079-.114.11-.168q.269-.462.536-.925,2.142-3.727,4.043-7.582,1.958-4,3.571-8.141c.284-.73.557-1.465.832-2.2a.588.588,0,0,0,.059-.258c-.048.109-.081.18-.11.252-.226.547-.45,1.094-.677,1.64-.1.243-.214.482-.311.727q-.63,1.6-1.323,3.177c-.686,1.559-1.426,3.093-2.147,4.636a1.164,1.164,0,0,1-.07.132q-.378.595-.757,1.188Zm.336,16.422.029.033c.043-.022.088-.04.128-.065.357-.221.721-.433,1.069-.667a18.561,18.561,0,0,0,2.569-2.119,28.725,28.725,0,0,0,2.284-2.514,33.714,33.714,0,0,0,2.159-2.921,26.7,26.7,0,0,0,1.556-2.679,7.563,7.563,0,0,0,.455-1.083,5.622,5.622,0,0,0,.153-.621.932.932,0,0,0-.011-.445.464.464,0,0,0-.49-.361,1.243,1.243,0,0,0-.333.063,2.262,2.262,0,0,0-.646.371,7.078,7.078,0,0,0-.821.747,19.486,19.486,0,0,0-1.593,1.926c-.28.378-.545.766-.824,1.145q-1.247,1.7-2.369,3.48c-1.149,1.821-2.213,3.691-3.247,5.579-.023.043-.045.086-.068.129Zm23.591-2.129c.071-.047.113-.073.152-.1.234-.175.469-.347.7-.528a18.8,18.8,0,0,0,3.072-3.049,13.259,13.259,0,0,0,.924-1.282c.3-.49.59-.991.886-1.487.1-.171.21-.338.315-.507.049-.079.1-.156.143-.238a.743.743,0,0,0,.085-.516c-.02-.1-.032-.2-.058-.293a1.648,1.648,0,0,1-.041-.53c.011-.178.026-.355.037-.533a7.228,7.228,0,0,0,.043-.767,3.13,3.13,0,0,0-.44-1.48,1.305,1.305,0,0,0-.286-.343.671.671,0,0,0-.882-.029,2.135,2.135,0,0,0-.364.36,6.144,6.144,0,0,0-.532.8c-.264.456-.527.913-.787,1.371q-.158.279-.3.568a16.182,16.182,0,0,0-.661,1.6c-.283.791-.518,1.6-.752,2.405-.266.916-.538,1.83-.806,2.745-.03.1-.06.205-.086.309q-.181.714-.36,1.429a.717.717,0,0,0-.005.1Zm-49.268,7.065a5.512,5.512,0,0,0,.306-1.209.961.961,0,0,0-.216.407c-.034.267-.061.534-.091.8Zm-1.471-3.668a.22.22,0,0,0,.105-.167.347.347,0,0,0-.056-.265c-.022-.038-.039-.1-.121-.079.012.142.032.281.05.421A.857.857,0,0,0,166.189,281.546Z" transform="translate(-92.551 -146.297)" fill="url(#a)"/><path d="M466.779,241.04a.451.451,0,0,0-.026-.1c-.055-.108-.116-.213-.184-.338l-.059.1c-.044.009-.065-.027-.081-.055-.076-.139-.156-.278-.22-.423a10.681,10.681,0,0,1-.511-1.382,4.044,4.044,0,0,1-.125-.7,10.567,10.567,0,0,1-.009-1.517,18.243,18.243,0,0,1,.244-1.869q.225-1.534.447-3.069a12.44,12.44,0,0,1,.439-1.9c.135-.435.276-.868.428-1.3q.482-1.359.98-2.713c.11-.3.238-.59.365-.882.052-.119.118-.232.18-.346a.827.827,0,0,1,.089-.1c0,.208-.088.369-.072.59.036-.079.054-.11.064-.144q.258-.851.513-1.7c.006-.021.019-.045.013-.062a.353.353,0,0,0-.058-.081c.051-.254.139-.52.212-.79s.149-.544.224-.815.156-.557.233-.836.151-.543.225-.815l.224-.81c-.069-.031-.087.023-.112.05a17.841,17.841,0,0,0-1.333,1.6c-.849,1.138-1.589,2.346-2.324,3.559-.364.6-.734,1.2-1.095,1.8-.287.477-.564.96-.846,1.44a10.85,10.85,0,0,1-1.014,1.486c-.074.089-.152.174-.23.26a.967.967,0,0,1-.347.255.791.791,0,0,0-.412.4,3.542,3.542,0,0,0-.21.476,13.348,13.348,0,0,1-.864,1.94c-.546,1.069-1.147,2.109-1.732,3.157-.412.739-.819,1.481-1.192,2.241-.051.1-.1.209-.144.316-.229.555-.459,1.109-.683,1.666-.054.133-.086.275-.126.413a.619.619,0,0,0-.013.064,1.317,1.317,0,0,1-.934,1.045,1.89,1.89,0,0,1-1.533-.14,2.176,2.176,0,0,1-1.09-1.24,4.244,4.244,0,0,1-.171-.627c-.088-.454-.164-.911-.238-1.368a15.707,15.707,0,0,1-.164-1.792,34.527,34.527,0,0,1,.072-3.685q.109-1.775.226-3.549c.089-1.356.212-2.71.352-4.061q.354-3.4.909-6.769c.286-1.719.607-3.431.992-5.131.4-1.786.928-3.538,1.507-5.273.618-1.852,1.3-3.68,1.985-5.509l.811-2.175a1.552,1.552,0,0,0,.09-.378,5.121,5.121,0,0,1,.192-.977.58.58,0,0,1,.143-.275l-.175.823a5.4,5.4,0,0,0,.469-1.157.547.547,0,0,1-.1-.128.378.378,0,0,1-.015-.171c.023-.186.044-.373.083-.556a3.968,3.968,0,0,1,.281-.82c.172-.374.346-.749.539-1.112.319-.6.628-1.205.914-1.822.38-.82.792-1.625,1.221-2.421q.993-1.843,1.993-3.682a26.265,26.265,0,0,1,1.591-2.586,13.011,13.011,0,0,1,2.378-2.6,7.743,7.743,0,0,1,1.291-.873,4.669,4.669,0,0,1,1.97-.542,3.131,3.131,0,0,1,1.279.173,4.059,4.059,0,0,1,.489.232,1.573,1.573,0,0,1,.462.389,7.915,7.915,0,0,1,.8,1.134,4.166,4.166,0,0,1,.192.388.593.593,0,0,1,.051.376c-.03-.02-.059-.029-.069-.048-.1-.177-.191-.356-.287-.534l-.031-.014.037.008a.646.646,0,0,0,.025.147,7.48,7.48,0,0,1,.525,2.274c0,.043.01.085.016.134l.111-.033a.272.272,0,0,1,.055.2c0,.231.009.463,0,.694-.051,1.207-.176,2.408-.3,3.609-.032.309-.066.618-.1.927a24.4,24.4,0,0,1-.585,3.131,48.4,48.4,0,0,1-1.534,5.107c-.76,2.1-1.572,4.183-2.516,6.21a43.482,43.482,0,0,1-2.564,4.751,8.08,8.08,0,0,1-1.116,1.407c-.209.211-.411.427-.616.641a3.128,3.128,0,0,0-.474.645c-.144.259-.283.521-.421.783-.064.121-.125.245-.185.368a11.2,11.2,0,0,1-.931,1.514q-1.168,1.673-2.457,3.255c-.421.515-.861,1.015-1.285,1.527q-.332.4-.638.823a4.761,4.761,0,0,0-.686,1.42,11.329,11.329,0,0,0-.29,1.2c-.355,1.875-.717,3.749-1.065,5.625-.294,1.585-.546,3.177-.773,4.774-.008.056-.012.113-.018.171.06.011.06-.037.073-.062.635-1.276,1.312-2.53,2.015-3.769.028-.048.074-.092.058-.157.067-.025.077-.085.088-.143-.052.035-.1.071-.085.145-.063,0-.071.059-.1.093-.045.05-.056.131-.135.15l0,0c-.01-.089.054-.146.094-.212.344-.569.689-1.138,1.04-1.7q2.352-3.788,4.769-7.535c.378-.583.789-1.142,1.192-1.707.345-.483.7-.957,1.084-1.41a9.53,9.53,0,0,1,1.3-1.3,4.347,4.347,0,0,1,1.169-.7,2.416,2.416,0,0,1,2.113.131,3.58,3.58,0,0,1,1.273,1.156,3.175,3.175,0,0,1,.526,1.719,6.262,6.262,0,0,1-.227,1.736c-.13.5-.3,1-.47,1.489-.782,2.315-1.576,4.626-2.244,6.978-.332,1.169-.625,2.347-.843,3.543a1.523,1.523,0,0,0-.031.327c.015-.032.033-.064.045-.1.032-.088.059-.178.092-.266a1.644,1.644,0,0,1,.078-.179c.026-.051.055-.112.123-.108s.084.071.1.125a1.554,1.554,0,0,1,.036.56,11.021,11.021,0,0,1-.186,1.4c-.066.363-.132.726-.207,1.086a5.441,5.441,0,0,0-.113.989c-.007.3-.021.593-.011.889.008.245.042.489.073.733a1.21,1.21,0,0,0,.072.249.478.478,0,0,0,.526.331.861.861,0,0,0,.371-.112,1.836,1.836,0,0,0,.459-.324,7.849,7.849,0,0,0,.573-.591q1.035-1.242,2-2.54c1.191-1.612,2.307-3.275,3.421-4.94.257-.384.5-.778.757-1.164a1.291,1.291,0,0,0,.181-.459,27.463,27.463,0,0,1,1.457-4.764,20.386,20.386,0,0,1,1.393-2.769,5.878,5.878,0,0,1,1.107-1.356,4.346,4.346,0,0,1,.375-.294c.117-.084.242-.158.363-.237a2.794,2.794,0,0,0,.593-.5,7.037,7.037,0,0,1,.785-.778,3.3,3.3,0,0,1,1.186-.658,3.369,3.369,0,0,1,2.627.251,4.65,4.65,0,0,1,1.286,1.052,8.861,8.861,0,0,1,1.133,1.664,17.117,17.117,0,0,1,.762,1.63c.022.052.048.1.08.172a1.036,1.036,0,0,0,.089-.106,12.51,12.51,0,0,1,.705-1.041,7.1,7.1,0,0,1,1.319-1.372,3.6,3.6,0,0,1,.98-.548,2.292,2.292,0,0,1,1.774.067,3.647,3.647,0,0,1,1.443,1.186,2,2,0,0,1,.357,1.543,4.832,4.832,0,0,1-.241.9c-.1.286-.2.572-.313.855a26.589,26.589,0,0,0-1.431,5.4c-.04.25-.074.5-.109.751a.26.26,0,0,0,.01.06c.087-.13.077-.3.223-.4.019.03.049.056.05.083a3.371,3.371,0,0,1,0,.39q-.072.962-.153,1.924c-.076.908-.143,1.816-.156,2.728a10.517,10.517,0,0,0,.081,1.624,2.938,2.938,0,0,0,.141.634,1.893,1.893,0,0,0,.171.349.494.494,0,0,0,.624.205,1.41,1.41,0,0,0,.376-.213,4.365,4.365,0,0,0,.715-.724,17.045,17.045,0,0,0,1.37-2c.958-1.594,1.825-3.238,2.668-4.895q1.147-2.253,2.2-4.549a.894.894,0,0,0,.082-.29c.106-1.065.191-2.131.238-3.2.025-.585.081-1.168.136-1.751.178-1.887.432-3.763.784-5.625.343-1.811.691-3.621,1.121-5.414.152-.633.279-1.271.43-1.9.079-.33.179-.655.278-.98a3.061,3.061,0,0,1,.15-.36c.013-.028.042-.048.1-.106-.033.208-.062.37-.084.533a1.94,1.94,0,0,0-.046.512.767.767,0,0,0,.088-.287c.17-.777.332-1.555.506-2.331.076-.338.179-.67.26-1.007a6.893,6.893,0,0,0,.136-.68,8.578,8.578,0,0,1,.425-1.723c.207-.579.4-1.164.586-1.748.09-.275.165-.554.25-.831a34.056,34.056,0,0,1,1.246-3.353c.316-.738.637-1.474,1.014-2.184a13.312,13.312,0,0,1,1.5-2.283,7.6,7.6,0,0,1,1.912-1.683,3.746,3.746,0,0,1,1.868-.563,3.964,3.964,0,0,1,1.282.186,5.405,5.405,0,0,1,1.682.882,8.054,8.054,0,0,1,2.367,2.814,4.514,4.514,0,0,1,.479,1.59,4.263,4.263,0,0,1-.068,1.273,22.075,22.075,0,0,1-2.845,7.275c-.05.08-.1.161-.152.238A11,11,0,0,0,520,203.666q-.312.739-.6,1.488a32.723,32.723,0,0,1-1.318,3c-.766,1.517-1.52,3.041-2.332,4.534-.917,1.684-1.911,3.322-2.937,4.942-.186.293-.37.587-.561.878a7.368,7.368,0,0,0-1.109,2.782c-.152.861-.294,1.724-.434,2.588q-.447,2.762-.777,5.54-.046.388-.09.775c-.006.049-.006.1-.009.168.065-.03.072-.081.088-.121q.532-1.259,1.062-2.519a14.435,14.435,0,0,1,.888-1.688q.057-.092.1-.19.32-.7.637-1.4c.014-.032.026-.064.037-.092-.012-.013-.017-.022-.022-.023s-.012.007-.016.012c-.049.071-.1.142-.146.215q-.272.418-.543.836c0,.005-.012.008-.019.013-.052,0-.048-.048-.047-.078a1.566,1.566,0,0,1,.03-.3,4.313,4.313,0,0,1,.159-.495,6.9,6.9,0,0,1,.506-1.007c.341-.572.647-1.161.943-1.758.34-.686.711-1.358,1.067-2.037a41.577,41.577,0,0,1,2.776-4.5,29.539,29.539,0,0,1,3.222-3.859,15.02,15.02,0,0,1,1.933-1.674,7.612,7.612,0,0,1,1.742-.96,4.219,4.219,0,0,1,1.525-.293,3.288,3.288,0,0,1,1.616.434,4.366,4.366,0,0,1,1.035.817,3.253,3.253,0,0,1,.9,2.666,5.338,5.338,0,0,1-.387,1.485,9.94,9.94,0,0,1-1.066,1.91,17.081,17.081,0,0,1-1.9,2.227,27.7,27.7,0,0,1-2.778,2.455q-1.714,1.33-3.509,2.549-.844.572-1.738,1.064c-.19.1-.388.193-.583.289-.117.058-.234.114-.349.175a.373.373,0,0,0-.178.143c.018.1.053.211.083.321a3.95,3.95,0,0,1,.159.741c0,.062.023.13-.041.179-.1,0-.114-.1-.19-.128-.036.019-.018.049-.01.071A15.96,15.96,0,0,0,518.177,229a9.016,9.016,0,0,0,1.308,1.778c.06.062.124.121.187.181.008.007.022.007.048.015a.518.518,0,0,0-.11-.189c-.45-.639-.882-1.289-1.29-1.955q-.119-.194-.232-.392a.825.825,0,0,1-.046-.12l0,0c.085.028.106.113.149.175a20.664,20.664,0,0,0,1.266,1.679,9.075,9.075,0,0,0,.987,1.036,4.83,4.83,0,0,0,.4.3.833.833,0,0,0,.622.119,4,4,0,0,0,2.024-.925A10.691,10.691,0,0,0,524.7,229.5c.238-.272.475-.545.707-.823a13.366,13.366,0,0,1,1.419-1.432q.781-.689,1.552-1.389a15.484,15.484,0,0,0,1.268-1.278c.066-.075.128-.153.213-.255l-.3.037a.4.4,0,0,1,.055-.24c.065-.137.132-.273.207-.406.346-.619.734-1.213,1.125-1.8q.486-.732.986-1.455a1.226,1.226,0,0,0,.191-.431,23.343,23.343,0,0,1,1.937-5.35,22.635,22.635,0,0,1,1.727-2.882,8.9,8.9,0,0,1,2.206-2.22,6.182,6.182,0,0,1,2.023-.917,6.633,6.633,0,0,1,4.118.371,4.057,4.057,0,0,1,1.021.649,3.21,3.21,0,0,1,.974,1.609,4.929,4.929,0,0,1,.088,1.959,7.516,7.516,0,0,1-.723,2.285,11.777,11.777,0,0,1-1.244,2.007,29.509,29.509,0,0,1-3.352,3.688c-.09.084-.184.163-.275.245a8.144,8.144,0,0,1-1.713,1.174q-.724.37-1.451.733a3.34,3.34,0,0,1-.34.141.477.477,0,0,0-.283.281,1.845,1.845,0,0,0-.13.828,1.457,1.457,0,0,0,.016.151,6.866,6.866,0,0,1,.011,1.688c-.073.8-.154,1.6-.228,2.4a16.131,16.131,0,0,0-.082,1.884,6,6,0,0,0,.307,1.9,2.424,2.424,0,0,0,.188.413.986.986,0,0,0,1.067.5,2.2,2.2,0,0,0,.579-.178,4.781,4.781,0,0,0,.789-.452,11.663,11.663,0,0,0,1.432-1.193c.649-.62,1.248-1.287,1.836-1.965s1.143-1.419,1.691-2.147c.2-.266.389-.54.586-.807a1.181,1.181,0,0,0,.245-.638.681.681,0,0,1,.087-.265,16.065,16.065,0,0,1,.852-1.511c.435-.683.876-1.363,1.317-2.042.667-1.025,1.277-2.084,1.88-3.147.285-.5.569-1.007.826-1.526a5.334,5.334,0,0,1,.5-.835,2.8,2.8,0,0,1,.3-.344,1.464,1.464,0,0,1,.313-.23.642.642,0,0,1,.7.029,2.325,2.325,0,0,1,.293.256,2.252,2.252,0,0,1,.188.231.62.62,0,0,1,.119.472,1.188,1.188,0,0,1-.178.462c-.116.2-.236.4-.351.6-1.261,2.195-2.563,4.366-3.85,6.545-.376.636-.79,1.246-1.214,1.849a25.342,25.342,0,0,0-1.8,2.962c-.176.341-.363.675-.548,1.01a15.394,15.394,0,0,1-1.362,2.087,18.626,18.626,0,0,1-1.737,1.965,10.084,10.084,0,0,1-1.113.932,3.922,3.922,0,0,1-1.2.593,3.8,3.8,0,0,1-1.352.134,7.315,7.315,0,0,1-3.151-1.016,9.046,9.046,0,0,1-1.791-1.4,1.668,1.668,0,0,1-.453-.776c-.1-.378-.19-.757-.253-1.143a3.854,3.854,0,0,1-.018-.973c.034-.381.06-.764.1-1.144.034-.3.085-.6.136-.9a7.846,7.846,0,0,0,.156-1.116c.017-.658.1-1.312.157-1.967a4.475,4.475,0,0,0-.018-1.038c-.039-.272-.071-.545-.1-.818a3.174,3.174,0,0,1,0-.843c0-.014,0-.026,0-.039s-.007,0-.01-.006l.018.048c-.018.011-.043.017-.052.033a.255.255,0,0,0-.025.082c-.1.569-.272,1.124-.333,1.7a4.278,4.278,0,0,1-.173.782c-.077.256-.146.515-.2.776a2.65,2.65,0,0,0-.042.82q.048.486.1.971a2.978,2.978,0,0,1,0,.67,5.641,5.641,0,0,0-.047,1.017,1.549,1.549,0,0,0,.116.527,1.184,1.184,0,0,1,.091.657,2.752,2.752,0,0,0,.1,1.052c.058.239.127.475.19.713.016.062.027.126.04.19-.068.022-.077-.032-.1-.062a5.134,5.134,0,0,1-.715-1.548,7.734,7.734,0,0,1-.249-1.888c-.016-.673.026-1.344.049-2.016.02-.6.046-1.2.071-1.8.009-.217.022-.433.033-.65a.541.541,0,0,0-.008-.212c-.021.008-.039.009-.045.018-.329.5-.693.98-1.047,1.465-.341.467-.67.943-1.006,1.414a18.824,18.824,0,0,1-1.508,1.9,6.768,6.768,0,0,1-.88.8c-.537.405-1.068.818-1.6,1.231-.188.147-.366.306-.549.459-.042.035-.071.077-.147.059-.058-.014-.086.063-.115.111.06.147.066.16-.029.269a5.07,5.07,0,0,1-.375.391,5.6,5.6,0,0,1-.933.669c-.241.146-.487.284-.727.432-.215.134-.423.277-.635.416s-.42.282-.633.418a2.5,2.5,0,0,1-.549.257,1.083,1.083,0,0,1-.491.055,7.664,7.664,0,0,1-1.8-.45,3.55,3.55,0,0,1-.466-.23.852.852,0,0,1-.193-.171.213.213,0,0,1-.048-.162c0-.073.068-.086.11-.126l-.588-.452-.015.145a1.6,1.6,0,0,1-.162-.112c-.145-.13-.293-.259-.43-.4-.309-.315-.611-.637-.918-.953a8.916,8.916,0,0,1-1.48-2.1,14.219,14.219,0,0,1-.874-2.03c-.016-.046-.038-.091-.06-.141-.074.04-.084.109-.109.164q-.636,1.426-1.27,2.854c-.309.694-.624,1.385-.925,2.082-.115.265-.2.541-.3.815-.113.336-.212.676-.325,1.012a3.8,3.8,0,0,1-.332.729,2.1,2.1,0,0,1-.375.475,1.47,1.47,0,0,1-.594.347c-.285.082-.57.161-.858.232a2.158,2.158,0,0,1-.711.054.463.463,0,0,1-.279-.082,2.254,2.254,0,0,0,.6-.023c-.07-.011-.139-.024-.21-.033a2.92,2.92,0,0,1-.817-.205.134.134,0,0,0-.123-.012.127.127,0,0,1-.1-.022c-.332-.206-.664-.411-.991-.624a.805.805,0,0,1-.18-.185,2.944,2.944,0,0,1-.472-.945,5.923,5.923,0,0,1-.237-1.735c0-.623.059-1.242.114-1.861,0-.028,0-.056.008-.094-.068.017-.074.072-.091.112-.4.922-.85,1.822-1.3,2.718a33.187,33.187,0,0,1-1.772,3.109c-.276.424-.539.857-.824,1.275a8.91,8.91,0,0,1-1.361,1.6,4.645,4.645,0,0,1-1.352.889,3.124,3.124,0,0,1-2.529-.017,4.381,4.381,0,0,1-1.361-.952,5.7,5.7,0,0,1-.925-1.226,9.894,9.894,0,0,1-.9-2.086,10.713,10.713,0,0,1-.327-1.5,15.149,15.149,0,0,1-.058-3.419c.1-1.147.284-2.281.491-3.411a1.623,1.623,0,0,0,.027-.495c-.018-.15-.02-.3-.03-.454,0-.05-.012-.1-.02-.171-.031.027-.056.04-.067.06-.468.865-.945,1.725-1.4,2.6-.241.468-.439.96-.651,1.443-.183.417-.355.839-.538,1.256a12.7,12.7,0,0,1-.942,1.757,44.6,44.6,0,0,1-2.61,3.706,12.384,12.384,0,0,1-.946,1.074,3.441,3.441,0,0,1-.6.5.712.712,0,0,1-.341.129c-.069,0-.07,0-.177-.077a1.527,1.527,0,0,1,.277-.2.93.93,0,0,0,.27-.253.8.8,0,0,0-.224.132c-.068.041-.134.086-.2.125s-.14.075-.213.108-.146.062-.221.089-.151.051-.227.073-.154.042-.232.058-.157.027-.236.037-.158.017-.238.02-.159,0-.239,0-.158-.007-.264-.011l.1.1a.186.186,0,0,1-.151.055,1.542,1.542,0,0,1-.835-.19,3.019,3.019,0,0,1-.647-.47,6.184,6.184,0,0,1-1.013-1.267,5.913,5.913,0,0,1-.685-1.634,10.918,10.918,0,0,1-.352-2.4c0-.072-.015-.143-.024-.214,0,0-.011-.006-.029-.015a.609.609,0,0,0-.116.2c-.168.344-.336.689-.5,1.036-.473,1-.938,2-1.419,3A26.826,26.826,0,0,1,475.074,241a12.923,12.923,0,0,1-1.274,1.7,4.441,4.441,0,0,1-.552.52,2.479,2.479,0,0,1-1.119.494,4.057,4.057,0,0,1-2.822-.5,5.5,5.5,0,0,1-.475-.3c-.5-.368-1-.738-1.494-1.118a5.043,5.043,0,0,1-.49-.459,1.427,1.427,0,0,1-.178-.245.488.488,0,0,1-.033-.137l.144.082.014.038.017-.022Zm3.462-39.282-.043.019.012.006a.156.156,0,0,0,.025-.03.376.376,0,0,0,.011-.037s-.008-.005-.012-.008Zm50.365-4.384-.033.1c-.028.019-.067.033-.081.059a1.965,1.965,0,0,0-.086.2l-.669,1.6c-.059.14-.123.278-.178.419-.406,1.037-.829,2.068-1.29,3.081-.584,1.283-1.185,2.559-1.777,3.839a4,4,0,0,1-.284.511c-.166.254-.323.515-.484.772-.016.025-.021.066-.077.057a4.11,4.11,0,0,1,.279-.64c.177-.332.364-.658.544-.988.16-.292.333-.578.472-.879q.793-1.725,1.564-3.459c.544-1.23,1.062-2.472,1.5-3.743.392-1.127.762-2.261,1.135-3.394a13.38,13.38,0,0,0,.386-1.445,6.775,6.775,0,0,0,.175-1.786,2.433,2.433,0,0,0-.22-.922,1.417,1.417,0,0,0-.539-.609.938.938,0,0,0-.872-.091,2.6,2.6,0,0,0-.368.181,2.472,2.472,0,0,0-.486.4,5.671,5.671,0,0,0-.683.84,15.841,15.841,0,0,0-1.056,1.869A27.082,27.082,0,0,0,516,197.069c-.409,1.274-.753,2.566-1.078,3.864-.4,1.606-.8,3.212-1.141,4.833-.4,1.939-.758,3.888-1.073,5.844-.164,1.02-.319,2.042-.477,3.064a.624.624,0,0,0-.01.259c.074-.125.13-.216.184-.309q1.522-2.617,2.923-5.3a98.321,98.321,0,0,0,5.18-11.741.855.855,0,0,1,.06-.111.079.079,0,0,1,.036-.1l-.023-.021.016-.008ZM470.014,202.2c.074-.056.084-.144.113-.223a.258.258,0,0,0,.021-.033s0-.012-.005-.018-.023.013-.023.019a.1.1,0,0,0,.014.036.2.2,0,0,0-.116.221.113.113,0,0,0-.07.14c-.084.046-.1.139-.131.214-.833,1.786-1.775,3.515-2.726,5.239-.023.042-.032.1-.093.109l0,0c-.017-.088.047-.148.082-.216.341-.662.69-1.321,1.027-1.984,1.209-2.373,2.317-4.791,3.291-7.27a52.4,52.4,0,0,0,1.741-5.133,38.92,38.92,0,0,0,1.177-5.421,16.774,16.774,0,0,0,.191-1.963,4.039,4.039,0,0,0-.121-1.183,1.379,1.379,0,0,0-.257-.521.6.6,0,0,0-.867-.125,1.418,1.418,0,0,0-.361.341c-.145.2-.289.4-.417.607a13.732,13.732,0,0,0-.67,1.314c-.018.039-.027.082-.043.122-.032.08-.06.162-.1.239-.074.149-.161.29-.229.442-.344.773-.693,1.544-1.024,2.323-.861,2.031-1.633,4.1-2.4,6.166l-1.848,5.006c-.671,1.81-1.345,3.619-1.955,5.451-.2.6-.387,1.2-.577,1.8a.151.151,0,0,0-.006.145c.04-.073.068-.132.1-.185s.041-.122.125-.146a.667.667,0,0,1-.037.24c-.286,1.254-.56,2.512-.887,3.757-.191.727-.361,1.46-.54,2.19s-.362,1.474-.542,2.212a.3.3,0,0,0-.017.224c.048-.058.093-.1.129-.156.549-.781,1.108-1.555,1.643-2.345a74.371,74.371,0,0,0,5.333-9.287c.321-.664.626-1.336.936-2,.029-.063.084-.122.057-.2a.117.117,0,0,0,.071-.14Zm22.592,25.207c.048-.007.046-.048.054-.081q.105-.43.207-.86a.3.3,0,0,0-.009-.077.9.9,0,0,0-.184.337,2.288,2.288,0,0,0-.063.684.277.277,0,0,0-.023.05c0,.005.014.015.022.023s.007-.013.007-.019-.007-.038-.011-.057Zm23.281-32.164c-.057-.012-.076.03-.1.068-.094.186-.181.377-.282.559a7.3,7.3,0,0,0-.539,1.477.166.166,0,0,0,.008.145c-.072,0-.072.063-.085.106-.087.291-.174.581-.253.874-.292,1.088-.57,2.179-.875,3.264a47,47,0,0,0-1.243,5.975c-.218,1.5-.383,3.008-.52,4.518-.029.316-.048.633-.071.951a.1.1,0,0,0,.022.131l-.029-.135c.015-.013.04-.024.044-.04a1.638,1.638,0,0,0,.031-.17c.234-1.573.512-3.139.81-4.7q.637-3.344,1.278-6.688c.261-1.37.54-2.737.881-4.091.044-.122.082-.247.132-.366.125-.3.259-.6.384-.9.136-.326.266-.655.4-.985l0-.01.007.016Zm-29.226,26.212a6.717,6.717,0,0,0-.4.92c-.229.633-.417,1.278-.6,1.927-.495,1.8-.912,3.617-1.3,5.441a31.231,31.231,0,0,0-.542,3.206,8.374,8.374,0,0,0-.049,1.731,3.722,3.722,0,0,0,.084.469.808.808,0,0,0,.16.329.364.364,0,0,0,.5.108,1.037,1.037,0,0,0,.232-.157,5.321,5.321,0,0,0,.409-.418,9.037,9.037,0,0,0,.816-1.148c.163-.265.318-.535.483-.8.6-.949,1.173-1.911,1.707-2.9.521-.96,1.029-1.926,1.543-2.89.167-.313.336-.624.5-.94.2-.4.4-.8.6-1.2.064-.129.125-.26.186-.392a.923.923,0,0,0,.076-.444,1.947,1.947,0,0,0-.169-.67c-.245-.579-.493-1.157-.737-1.737a9.983,9.983,0,0,1-.458-1.24,1.978,1.978,0,0,1-.051-.276c0-.028.019-.059.034-.1a.657.657,0,0,1,.151.231c.174.349.344.7.517,1.051a1.2,1.2,0,0,0,.071.113,5.852,5.852,0,0,0-.193-.645,5.782,5.782,0,0,0-.509-1.124,1.938,1.938,0,0,0-.371-.45.837.837,0,0,0-.829-.182,2.034,2.034,0,0,0-.641.31,3.205,3.205,0,0,0-.593.57,6.506,6.506,0,0,0-.753,1.189,13.244,13.244,0,0,0-.662,1.556,45.617,45.617,0,0,0-1.688,5.964,27.53,27.53,0,0,0-.537,3.776.282.282,0,0,0,.025.183c.019-.1.033-.158.045-.221.158-.838.308-1.678.474-2.514.365-1.829.766-3.651,1.251-5.453a21.009,21.009,0,0,1,.717-2.274c.085-.215.185-.424.286-.632a.651.651,0,0,1,.205-.268Zm29.3,1.564c.018.011.026.019.03.017.045-.021.091-.042.135-.067a13.252,13.252,0,0,0,1.451-.948,19.7,19.7,0,0,0,2.66-2.417,33.617,33.617,0,0,0,2.239-2.7,27.777,27.777,0,0,0,2.057-3.185,11.1,11.1,0,0,0,.673-1.407,3.327,3.327,0,0,0,.2-.707,1.679,1.679,0,0,0,.024-.366.46.46,0,0,0-.579-.454.978.978,0,0,0-.126.032,1.9,1.9,0,0,0-.555.289,5.5,5.5,0,0,0-.674.578,13,13,0,0,0-1.2,1.37c-.356.465-.7.94-1.04,1.415-.393.545-.788,1.089-1.168,1.644-1.5,2.186-2.814,4.479-4.085,6.8-.02.036-.033.074-.048.11Zm21.472-1.967a.445.445,0,0,0,.194-.111,17.057,17.057,0,0,0,3.724-3.669c.181-.244.356-.492.517-.749.391-.625.735-1.278,1.144-1.892a.781.781,0,0,0,.12-.661c-.011-.042-.015-.086-.027-.127a1.61,1.61,0,0,1-.047-.58c.019-.267.034-.534.058-.8a2.5,2.5,0,0,0-.042-.776,2.655,2.655,0,0,0-.372-.942,1.415,1.415,0,0,0-.257-.29.579.579,0,0,0-.759-.023,1.877,1.877,0,0,0-.327.314,4.174,4.174,0,0,0-.351.494c-.246.409-.477.827-.722,1.236a11.956,11.956,0,0,0-.906,1.919c-.322.845-.574,1.713-.823,2.581-.207.722-.419,1.443-.628,2.164-.071.243-.144.485-.209.729-.1.363-.186.728-.277,1.092a.585.585,0,0,0-.008.091Zm-67.483-33.794a.415.415,0,0,0-.056.069c-.047.1-.093.2-.134.3-.225.556-.453,1.111-.672,1.67q-1.468,3.746-2.861,7.521c-.342.922-.685,1.844-1.005,2.773-.3.882-.627,1.757-.96,2.628-.377.986-.755,1.972-1.116,2.963a21.544,21.544,0,0,0-.72,2.432c-.2.844-.4,1.689-.605,2.531-.286,1.158-.591,2.311-.832,3.48a23.977,23.977,0,0,0-.435,2.871c-.021.259-.036.519-.059.778-.027.3-.062.6-.091.905a1.353,1.353,0,0,0,0,.152c0,.05,0,.1.006.15a.135.135,0,0,0,.046-.081c.068-.362.127-.726.2-1.087.322-1.528.688-3.046,1.062-4.562.156-.632.313-1.263.5-1.887.142-.485.323-.959.487-1.438a11.932,11.932,0,0,0,.424-1.479,19.339,19.339,0,0,1,.67-2.445c.285-.827.581-1.65.878-2.473.979-2.721,1.965-5.44,2.938-8.163.623-1.743,1.231-3.491,1.791-5.255.19-.6.378-1.2.517-1.814.027-.12.048-.241.066-.362A.2.2,0,0,0,469.949,187.259ZM491.2,223.7a.74.74,0,0,0,.073.447.231.231,0,0,0,.067-.216.3.3,0,0,0-.139-.231Zm-20.885-22.143-.007-.013,0,.015Zm13.333,31.382h.009l0-.013Zm34.24,1.452-.016,0,.012.016Z" transform="translate(-275.248 -109.572)" fill="url(#b)"/><path d="M401.751,229.333a.109.109,0,0,0,.081-.02l.2-.133a14.747,14.747,0,0,1,2.344-1.277,15.617,15.617,0,0,1,1.764-.633c.255-.075.511-.149.771-.2a4.261,4.261,0,0,1,1.177-.114,2.31,2.31,0,0,1,.631.132,1.541,1.541,0,0,1,.952,1.141,2.9,2.9,0,0,1,.026.73c-.016.193-.036.386-.057.579a.738.738,0,0,1-.032.111.177.177,0,0,1-.018-.042c-.005-.057-.008-.115-.013-.172-.028-.3-.055-.6-.086-.9a2.014,2.014,0,0,0-.1-.484,2.256,2.256,0,0,0-.1-.239,1.173,1.173,0,0,0-.638-.582,2.11,2.11,0,0,0-.608-.136,3.409,3.409,0,0,0-.86.037c-.262.045-.525.086-.783.151q-.356.089-.7.2a13.36,13.36,0,0,0-2.578,1.191,15.585,15.585,0,0,0-4.071,3.428,14.1,14.1,0,0,0-2.138,3.379,10.228,10.228,0,0,0-.637,1.875,9.873,9.873,0,0,0-.236,1.771,10.6,10.6,0,0,0,.187,2.4,12.6,12.6,0,0,0,.366,1.441,19.021,19.021,0,0,0,1.25,3c.487.955,1.031,1.876,1.6,2.785s1.168,1.812,1.757,2.715c.389.6.78,1.19,1.147,1.8a.2.2,0,0,0,.085.093l-.006,0a.076.076,0,0,1-.078-.024c-.036-.044-.071-.09-.1-.136l-2.461-3.347c-.385-.527-.759-1.062-1.137-1.594a.6.6,0,0,1-.04-.075c.006.017,0,.02-.008.009l.016-.005a.289.289,0,0,0,.049.183c.174.338.35.676.52,1.017.211.424.415.853.625,1.278a14.571,14.571,0,0,0,.962,1.683c.141.209.289.412.448.607q.718.875,1.43,1.755c.442.548.87,1.108,1.271,1.687a16.941,16.941,0,0,1,1.148,1.9,13.636,13.636,0,0,1,.646,1.481c.12.323.229.651.324.982.083.29.155.583.219.878a12.657,12.657,0,0,1,.219,1.515c.028.3.033.6.032.9a10.421,10.421,0,0,1-.135,1.631,11.065,11.065,0,0,1-.823,2.738,13.962,13.962,0,0,1-1.461,2.512c-.312.432-.649.843-.991,1.251a.345.345,0,0,1-.048.041c.013-.014.016-.013.011,0l-.011-.012a.3.3,0,0,0,.167-.092l.578-.518c.032-.029.067-.054.1-.081.013-.01.047.008.05.025a.36.36,0,0,1,.009.064,1.4,1.4,0,0,1-.011.15,1.524,1.524,0,0,1-.168.487,3.624,3.624,0,0,1-.511.719,7.665,7.665,0,0,1-.576.582,15.007,15.007,0,0,1-1.433,1.142,30.24,30.24,0,0,1-2.868,1.8,18.435,18.435,0,0,1-1.656.831,17.818,17.818,0,0,1-1.717.638c-.46.144-.926.266-1.4.371a15.709,15.709,0,0,1-1.917.3l-.236.022c-.308.031-.617.036-.926.043-.345.008-.69,0-1.035-.022a11.355,11.355,0,0,1-2.956-.563,6.587,6.587,0,0,1-1.969-1.052,5.949,5.949,0,0,1-1.464-1.682,7.008,7.008,0,0,1-.681-1.6,8.6,8.6,0,0,1-.285-1.437c-.036-.314-.056-.63-.064-.947a13.378,13.378,0,0,1,.453-3.712,14.606,14.606,0,0,1,.81-2.318c.1-.224.212-.441.331-.654a23.893,23.893,0,0,1,1.882-2.89,10.649,10.649,0,0,1,1.189-1.337,4.644,4.644,0,0,1,.624-.5,2.2,2.2,0,0,1,.561-.272,1.054,1.054,0,0,1,.469-.042.814.814,0,0,1,.322.116.942.942,0,0,1,.476.776,2.317,2.317,0,0,1-.02.409,4.862,4.862,0,0,1-.2.839c-.134.426-.3.84-.467,1.253q-.165.4-.331.8a11.244,11.244,0,0,0-.544,1.725,15.569,15.569,0,0,0-.319,1.913c-.054.479-.1.958-.121,1.439q-.028.528-.025,1.056a10.376,10.376,0,0,0,.113,1.528,6.463,6.463,0,0,0,.509,1.752,5.342,5.342,0,0,0,.388.7,2.979,2.979,0,0,0,1.947,1.318,4.288,4.288,0,0,0,.878.083,5.554,5.554,0,0,0,1.071-.111,7.969,7.969,0,0,0,1.484-.447A9.893,9.893,0,0,0,395.1,274a12.872,12.872,0,0,0,4.633-5.173,10.457,10.457,0,0,0,.975-3.2,8.936,8.936,0,0,0,.077-1.4,3.354,3.354,0,0,0-.061-.556c-.041-.212-.074-.425-.133-.633s-.112-.4-.173-.6a.819.819,0,0,0-.087-.172c-.059-.1-.124-.194-.185-.291a2.233,2.233,0,0,1-.2-.384.575.575,0,0,1-.045-.188c0-.011.009-.022.014-.033.011.008.025.014.031.025.058.1.113.2.172.3a.431.431,0,0,0,.068.082c.007.006.026,0,.039,0a.227.227,0,0,0-.009.037s.01.012.011.012c.022-.018,0-.03-.005-.045-.015-.04-.028-.082-.045-.121a5.2,5.2,0,0,1-.236-.671.323.323,0,0,0-.068-.132q-.131-.172-.278-.329a.516.516,0,0,1-.087-.122q-.275-.477-.5-.978c-.039-.085-.078-.17-.123-.252-.656-1.2-1.309-2.4-1.969-3.593-.574-1.038-1.174-2.061-1.778-3.082-.823-1.392-1.657-2.778-2.466-4.179a23.861,23.861,0,0,1-1.461-2.979,19.923,19.923,0,0,1-.716-2.079q-.141-.5-.257-1c-.066-.288-.119-.577-.177-.866-.024-.12-.05-.239-.076-.359-.008-.035-.017-.07-.023-.105a17.318,17.318,0,0,1-.26-1.793,6.349,6.349,0,0,1-.011-1.077,2.146,2.146,0,0,1,.077-.424.86.86,0,0,1,.107-.235.365.365,0,0,1,.159-.141c.019-.008.053-.006.059.007a.092.092,0,0,1,.012.038c0,.036-.009.071-.013.107a3.745,3.745,0,0,0-.031.6l.005.015-.005-.019a.091.091,0,0,0,.045-.068c.022-.156.044-.312.068-.467a13.2,13.2,0,0,1,.536-2.166c.018-.054.039-.108.054-.163a.2.2,0,0,0,0-.063.052.052,0,0,0,.025-.031.052.052,0,0,0,0-.039c-.005-.013-.008-.026-.012-.039.018,0,.02,0,.006.009v-.015l-.01.118c-.012,0-.031.006-.037.016-.031.048-.058.1-.089.147a.28.28,0,0,1-.058.047c0-.039,0-.067,0-.094a4.3,4.3,0,0,1,.255-1.111,7.947,7.947,0,0,1,.658-1.357,14.727,14.727,0,0,1,.921-1.356c.373-.494.765-.972,1.168-1.442.281-.327.559-.658.851-.976a17.4,17.4,0,0,1,3.407-2.869,17.189,17.189,0,0,1,2.763-1.454,11,11,0,0,1,1.723-.554,10.43,10.43,0,0,1,1.4-.23,11.551,11.551,0,0,1,1.163-.049,13.642,13.642,0,0,1,2.905.358c.68.154,1.353.337,2.021.539a9.2,9.2,0,0,1,1.268.486,8.112,8.112,0,0,1,.756.414,4.233,4.233,0,0,1,1.306,1.267c.177.263.336.536.49.812.091.163.18.328.272.491q.1.169.2.335a1.728,1.728,0,0,1,.233.644,2.694,2.694,0,0,1-.039.964,5.133,5.133,0,0,1-.274.885c-.076.186-.153.373-.241.554-.37.764-.753,1.521-1.172,2.26a32.927,32.927,0,0,1-2.157,3.3c-.525.712-1.058,1.418-1.611,2.109a10.441,10.441,0,0,1-1.189,1.279c-.161.143-.327.282-.5.411a2.754,2.754,0,0,1-1.029.479,1.4,1.4,0,0,1-.471.032.581.581,0,0,1-.226-.068.346.346,0,0,1-.188-.273.569.569,0,0,1,0-.172,1.17,1.17,0,0,1,.093-.286,2.343,2.343,0,0,1,.306-.494,1.4,1.4,0,0,0,.2-.33c.083-.191.165-.383.24-.578.18-.47.355-.942.535-1.412.173-.45.354-.9.566-1.33a4.151,4.151,0,0,1,.343-.6,2.782,2.782,0,0,1,.191-.233.429.429,0,0,1,.157-.112c.022-.009.058-.008.06,0a.081.081,0,0,1,0,.04c-.179.432-.33.874-.49,1.313a.623.623,0,0,1-.04.075l.006.009,0-.013a.048.048,0,0,0,.056-.017,1.065,1.065,0,0,0,.069-.109,29.99,29.99,0,0,0,1.836-4.018,14.434,14.434,0,0,0,.576-1.986,8.143,8.143,0,0,0,.164-1.238,4.224,4.224,0,0,0-.073-1.052,2.45,2.45,0,0,0-.257-.707,1.939,1.939,0,0,0-.945-.85,2.539,2.539,0,0,0-.857-.2,4.049,4.049,0,0,0-.8.032,6.72,6.72,0,0,0-1.2.275,15.006,15.006,0,0,0-2.084.877,14.33,14.33,0,0,0-2.025,1.23c-.041.029-.08.061-.118.094-.008.007-.008.025-.011.038s-.032,0-.041,0c-.074.054-.147.109-.217.168-.009.007,0,.038,0,.058a.087.087,0,0,0-.077-.007l-.057.017a.256.256,0,0,1-.035.052c-.031.029-.02.063-.018.1a.177.177,0,0,0-.135.012v-.006c.046.019.09-.011.135-.006a.082.082,0,0,1,.038-.065c.034-.027.026-.055.013-.086.048.036.091,0,.135-.008l.144-.117c.032-.026.067-.048.1-.075C401.748,229.363,401.748,229.346,401.751,229.333Zm-17.219,46.973.015-.006-.018,0c.007-.041.023-.083-.02-.116-.016-.032-.03-.065-.049-.095a6.983,6.983,0,0,1-.737-1.575c-.1-.3-.181-.6-.251-.913a10.392,10.392,0,0,1-.2-1.189,14.079,14.079,0,0,1-.085-1.526c0-.345.009-.689.031-1.033a16.033,16.033,0,0,1,.261-2.027,14.316,14.316,0,0,1,.757-2.6c.016-.04.037-.077.053-.118a.149.149,0,0,0-.019-.122l.1-.017a.111.111,0,0,1,.016-.11c-.015,0-.016,0,0-.007v.012a.476.476,0,0,1,.019.058c0,.023-.01.037-.03.046l-.1.016c0,.02,0,.039,0,.059a.091.091,0,0,0,.026.071c-.029-.007-.056-.01-.073.023-.03.057-.061.114-.089.172q-.328.691-.589,1.411a13.65,13.65,0,0,0-.735,3.029,11.034,11.034,0,0,0-.076,1.182c0,.28.012.56.03.84a8.523,8.523,0,0,0,.269,1.592,7.39,7.39,0,0,0,.393,1.117,7.656,7.656,0,0,0,.932,1.572,1.519,1.519,0,0,0,.114.128c.006.007.025,0,.038,0C384.518,276.225,384.525,276.265,384.531,276.306ZM400.977,229.9l.108-.037c-.011-.009-.01-.011,0-.006l-.006.011-.106.04c.015-.011.019-.009.01.005Z" transform="translate(-231.9 -135.835)" fill="url(#b)"/><path d="M74.818,274.136c.012-.005.029-.007.034-.016.028-.055.054-.11.078-.167l.6-1.4q.326-.764.677-1.518c.022-.048.061-.093.045-.153l.067-.026c-.017,0-.022-.005-.013-.02a.016.016,0,0,1,.015-.005c.015.008.014.017,0,.026-.051-.008-.052-.008-.065.028-.017.009-.04.013-.051.027-.05.066-.1.134-.144.2-.032.045-.063.09-.1.134,0,.006-.022.005-.033,0s-.008-.011-.007-.017a.3.3,0,0,1,.009-.061,4.029,4.029,0,0,1,.225-.576c.124-.261.264-.514.413-.762q.266-.442.539-.88a5.347,5.347,0,0,0,.359-.673c.187-.429.4-.843.618-1.259.325-.629.647-1.26.989-1.881q1.141-2.07,2.448-4.04c.183-.275.384-.537.584-.8.425-.558.855-1.112,1.31-1.647a16.967,16.967,0,0,1,1.766-1.819,9.62,9.62,0,0,1,1.291-.957,6.235,6.235,0,0,1,1.323-.619,5.416,5.416,0,0,1,.863-.2c.1-.016.2-.026.307-.041a5.109,5.109,0,0,1,.741-.046,6.365,6.365,0,0,1,1.472.166,6.765,6.765,0,0,1,1.744.678,8.262,8.262,0,0,1,1.9,1.471,10.816,10.816,0,0,1,1.759,2.407,11.891,11.891,0,0,1,.926,2.2,11.2,11.2,0,0,1,.3,1.221,10.528,10.528,0,0,1,.145,1.166c.021.281.035.563.039.845s0,.591-.018.886a10.91,10.91,0,0,1-.178,1.494,8.857,8.857,0,0,1-.565,1.872,7.077,7.077,0,0,1-.893,1.5,13.143,13.143,0,0,1-1.884,1.96,12.9,12.9,0,0,1-1.768,1.282,8.348,8.348,0,0,1-1.484.714c-.2.072-.406.128-.613.181-.146.038-.294.074-.442.1a2.94,2.94,0,0,1-.307.034.555.555,0,0,1-.243-.037.338.338,0,0,1-.218-.231c-.006-.02-.012-.04-.017-.06a.375.375,0,0,1,.071-.349c.032-.036.057-.079.091-.112a1.945,1.945,0,0,0,.405-.639c.087-.195.169-.391.245-.591q.294-.771.58-1.545c.189-.509.378-1.018.585-1.521a7.6,7.6,0,0,1,.338-.73.954.954,0,0,1,.2-.283.021.021,0,0,1,.02,0c.009.008.02.019.02.029a.2.2,0,0,1-.009.061c-.013.046-.029.092-.043.138l-.405,1.342a1.1,1.1,0,0,0-.037.139.289.289,0,0,0,.01.08c-.051.018-.03.06-.031.093-.013.006-.016,0-.007-.005v.011l.032-.1c.078-.2.158-.395.232-.594.466-1.249.9-2.508,1.284-3.786.165-.553.324-1.108.457-1.67.169-.715.333-1.432.44-2.16a8.593,8.593,0,0,0,.1-1.293,4.087,4.087,0,0,0-.107-.961,2.449,2.449,0,0,0-.19-.522,1.512,1.512,0,0,0-.261-.369,1.3,1.3,0,0,0-1.044-.4,2.561,2.561,0,0,0-.744.154,5.74,5.74,0,0,0-1.035.507c-.306.184-.6.389-.888.6-.233.171-.462.346-.7.516a.5.5,0,0,0-.165.206c0,.01,0,.025.005.037a.08.08,0,0,0-.085.036c-.02.025,0,.05,0,.075l-.131,0a.088.088,0,0,1-.03.075h.01l-.008,0,0-.01.028-.07h.13c0-.029.018-.044.034-.061l.049-.054c.03-.016.06-.032.089-.05.087-.055.17-.117.26-.165a1.746,1.746,0,0,0,.318-.225,9.711,9.711,0,0,1,1.1-.829,5.548,5.548,0,0,1,.946-.5,2.836,2.836,0,0,1,.594-.163,1.491,1.491,0,0,1,.553.009,1.112,1.112,0,0,1,.462.214,1.443,1.443,0,0,1,.514.8,2.327,2.327,0,0,1,.057.694,2.741,2.741,0,0,1-.052.449.328.328,0,0,1-.035.072l.005,0c-.005-.1-.017-.192-.015-.288a3.687,3.687,0,0,0-.066-.7,1.669,1.669,0,0,0-.147-.45,1.109,1.109,0,0,0-.978-.653,2.041,2.041,0,0,0-1.074.237,3.911,3.911,0,0,0-.529.32c-.174.124-.346.249-.518.374a4.043,4.043,0,0,1-.683.423.788.788,0,0,0-.182.135,15.371,15.371,0,0,0-1.13,1.086,20.123,20.123,0,0,0-1.647,2.009,30.721,30.721,0,0,0-1.673,2.6c-.538.929-1.036,1.879-1.521,2.836-.249.491-.5.978-.749,1.471-.8,1.614-1.535,3.259-2.211,4.931-.575,1.422-1.1,2.861-1.6,4.312q-.6,1.757-1.112,3.542c-.342,1.2-.656,2.415-.954,3.63-.447,1.823-.867,3.652-1.291,5.48q-.317,1.366-.619,2.736c-.282,1.283-.532,2.571-.74,3.868-.14.876-.261,1.754-.349,2.637-.04.4-.072.808-.105,1.212a1.869,1.869,0,0,0,.011.473.381.381,0,0,1-.013.243.148.148,0,0,0-.007.061c-.007.412-.02.825-.017,1.238,0,.358.011.715.028,1.072.02.412.044.824.089,1.235.029.267.05.534.084.8.054.423.117.845.173,1.268a.513.513,0,0,0,.1.264c.013.016.021.036.034.052a1.671,1.671,0,0,1,.28.637c.028.113.053.227.077.333a.291.291,0,0,0,.1.083.961.961,0,0,1,.208.2q.139.179.27.365c.071.1.137.206.205.309.046.069.095.135.139.2a1.656,1.656,0,0,0,.607.547,2.842,2.842,0,0,0,1.054.338,4.49,4.49,0,0,0,.7.029,2.235,2.235,0,0,0,.307-.034,7.535,7.535,0,0,0,.985-.224c.289-.089.572-.2.852-.311a12.845,12.845,0,0,0,2.766-1.586,18.14,18.14,0,0,0,2.051-1.788,26.5,26.5,0,0,0,1.787-2c.569-.7,1.106-1.422,1.632-2.154.606-.844,1.2-1.7,1.763-2.569a55.573,55.573,0,0,0,3.431-6.113c.149-.31.292-.623.439-.934a4.533,4.533,0,0,0,.184-.459c.072-.208.145-.416.22-.622a3.675,3.675,0,0,1,.212-.47,1.817,1.817,0,0,1,.218-.325.77.77,0,0,1,.2-.175.579.579,0,0,1,.092-.045.4.4,0,0,1,.493.145,1,1,0,0,1,.106.176,1.669,1.669,0,0,1,.128.37,5.816,5.816,0,0,1,.111.713,13.346,13.346,0,0,1,.034,1.36q-.01.619-.056,1.236a19,19,0,0,1-.326,2.326,22.753,22.753,0,0,1-1.275,4.154,28.473,28.473,0,0,1-2.02,3.967q-.794,1.306-1.705,2.532a35.4,35.4,0,0,1-2.608,3.142c-.667.713-1.347,1.415-2.075,2.067a12.555,12.555,0,0,1-1.325,1.05,7.566,7.566,0,0,1-1.185.667,5.2,5.2,0,0,1-1.281.381,5.435,5.435,0,0,1-1.172.05,8.763,8.763,0,0,1-2.022-.382,14.221,14.221,0,0,1-1.568-.574q-.691-.3-1.373-.618a17.2,17.2,0,0,1-2.938-1.75,14.474,14.474,0,0,1-2.739-2.613,11.523,11.523,0,0,1-1.5-2.437,7.9,7.9,0,0,1-.466-1.364,11.687,11.687,0,0,1-.3-2.017c-.03-.433-.042-.866-.047-1.3,0-.364.006-.729.009-1.093q0-.371.008-.743c0-.131,0-.261.008-.392a2.718,2.718,0,0,0-.035-.534c-.04-.265-.072-.531-.106-.8a.909.909,0,0,1,.006-.288.156.156,0,0,1,.016-.035c.031.046.031.046.043.182.006.069.012.137.021.205a.537.537,0,0,0,.04.2.093.093,0,0,0,.018-.083,5.583,5.583,0,0,1,.007-.886.142.142,0,0,0-.013-.079.491.491,0,0,1-.051-.2c-.011-.109-.023-.219-.028-.329a9.167,9.167,0,0,1,.012-1.175c.058-.65.114-1.3.2-1.948.081-.593.185-1.181.295-1.77.119-.642.236-1.284.37-1.924.165-.787.349-1.57.534-2.353.2-.863.411-1.725.6-2.592q.179-.826.33-1.658c.139-.765.319-1.52.526-2.269.3-1.088.658-2.157,1.053-3.214.2-.548.418-1.092.627-1.637.27-.706.537-1.414.81-2.119s.556-1.392.867-2.074c.142-.313.288-.625.459-.924.082-.143.171-.282.263-.419a.554.554,0,0,1,.206-.2.024.024,0,0,1,.036.009c0,.005.008.012.007.017a.334.334,0,0,1-.011.06c-.027.085-.058.169-.084.255-.042.138-.082.277-.121.416a.185.185,0,0,0,0,.122c-.015.008-.016.011,0,.01Zm13.018-12.06c.007-.015-.01-.039.023-.046s.031.018.045.029l0-.009,0,.007c-.024.011-.045.029-.074.02,0,.043,0,.043-.046.054l-.009.063c-.07.075-.144.147-.21.225a20.865,20.865,0,0,0-1.634,2.225.451.451,0,0,0-.039.072.1.1,0,0,0,0,.039c-.033,0-.04.018-.036.046-.007,0-.015,0-.019.007a.47.47,0,0,0-.117.19c0,.01.007.025.01.037-.029-.009-.045,0-.053.031l-.066.027a.1.1,0,0,1-.018.09.076.076,0,0,0,0,.073c-.026.006-.042.02-.035.049a.058.058,0,0,0-.059.026c-.016.022-.03.045-.062.045.019.031,0,.063,0,.095.028.037.028.037-.015.056l-.077.044q.019-.013.008,0l-.006-.012.072-.035.016-.064c0-.018-.006-.036-.006-.054a.147.147,0,0,1,.006-.032c.02-.017.051-.022.057-.053a.068.068,0,0,0,.059-.022l.035-.049a.378.378,0,0,0,.041-.088c0-.022-.012-.048-.018-.072.055.012.055.012.06-.032.028.008.042-.009.053-.03.041-.059.084-.117.123-.177.009-.014,0-.037,0-.055.033,0,.042-.016.037-.045.047-.008.062-.05.085-.082.2-.278.391-.561.6-.836.36-.483.726-.96,1.09-1.441.041-.054.08-.111.117-.168,0-.007,0-.024-.007-.037.03-.014.005-.041.014-.06.03-.006.041-.029.047-.055Zm-3.877,3.554c.015-.041.015-.042.052-.022l.016.013q-.026-.007,0-.018l0,.013-.073.015c0,.035-.013.06-.052.062.008.037.016.074.022.11-.046,0-.046,0-.043.047-.043-.009-.043-.009-.052.035a.187.187,0,0,0-.048.034c-.049.066-.1.134-.143.2a49.441,49.441,0,0,0-2.73,4.518,57.392,57.392,0,0,0-3.447,7.8c-.416,1.166-.792,2.344-1.154,3.527q-.685,2.238-1.263,4.507-.5,1.958-.917,3.936c-.087.41-.167.822-.251,1.232a.3.3,0,0,0-.007.162c-.049.035-.032.082-.024.128-.01.014-.028.027-.028.041a.536.536,0,0,0,.009.089l-.029.019s0,.015,0,.015c.024,0,.012-.026.02-.038a.135.135,0,0,0,.02-.13c.05-.034.041-.08.025-.127.011-.007.028-.012.031-.021.015-.045.027-.092.039-.139.1-.392.2-.785.307-1.177.312-1.162.663-2.313,1.027-3.459.477-1.5.984-2.991,1.5-4.477.532-1.525,1.075-3.047,1.642-4.56.636-1.693,1.3-3.375,2.015-5.036.256-.594.519-1.184.782-1.774.229-.515.459-1.03.7-1.542.567-1.223,1.178-2.425,1.862-3.587a1.115,1.115,0,0,0,.056-.11c0-.011,0-.026,0-.04.028.005.039-.017.052-.034l.043-.046a.148.148,0,0,0-.017-.1.061.061,0,0,1,.053-.065Zm1.3.12.009-.009s.008.008.007.011-.012.013-.021,0q.022,0,0,.007ZM73.779,292.243l.007-.015h-.012Z" transform="translate(-41.141 -154.759)" fill="url(#b)"/><path d="M307.339,413.218a1.167,1.167,0,0,1,.053.555,2.4,2.4,0,0,0-.069.377,1.141,1.141,0,0,0,.015.365,1.163,1.163,0,0,1,.014.365,1.34,1.34,0,0,1-.011.271,2.63,2.63,0,0,0,.005.733q.054.384.084.771c.013.1.032.2.056.31a1.367,1.367,0,0,1,.018.389.737.737,0,0,1,0,.33q-.037.262-.044.385a2.887,2.887,0,0,0,.024.522l.069.492q0,.2.006.391a3.085,3.085,0,0,0,.03.387,1.29,1.29,0,0,1,.047.421.441.441,0,0,0,.02.23.157.157,0,0,1,.017.12.223.223,0,0,0,.02.144,1.188,1.188,0,0,0,.146-.179.565.565,0,0,1,.06-.094.644.644,0,0,0,.077-.146,1.751,1.751,0,0,1,.095-.2,1.168,1.168,0,0,0,.2-.3q.089-.233.126-.238a.132.132,0,0,0,.077-.06,5.3,5.3,0,0,1,.43-.6c.1-.112.147-.176.144-.191a.07.07,0,0,1,.017-.051,1.991,1.991,0,0,1,.244-.267.056.056,0,0,0,.027-.065.172.172,0,0,0,.153-.132.356.356,0,0,1,.1-.173c.133-.1.214-.161.244-.181q.305-.263.4-.362a.952.952,0,0,1,.209-.164q.278-.113.382-.152a1.43,1.43,0,0,0,.218-.1q.178-.123.2-.114c.017.006.04,0,.07-.022a4.118,4.118,0,0,1,.422-.133,1.462,1.462,0,0,1,.51-.023,1.578,1.578,0,0,1,.5.1q.233.09.442.182a1.029,1.029,0,0,0,.239.137.71.71,0,0,0,.24.138q.195.169.222.189l.082.062a1.087,1.087,0,0,1,.142.139c0,.008.02.026.056.053q.25.21.332.271a.578.578,0,0,1,.147.175,1.452,1.452,0,0,0,.181.244q.116.131.229.237a.542.542,0,0,1,.2.192,1.042,1.042,0,0,1,.14.3c.043.076.076.136.1.182s.056.107.1.182a.586.586,0,0,0,.13.226.394.394,0,0,1,.085.086,2.232,2.232,0,0,0,.177.391.912.912,0,0,0,.1.255l.077.111a3.707,3.707,0,0,1,.115.559q.006.134.03.3a2.11,2.11,0,0,0,.069.32,1.3,1.3,0,0,1,.049.348c.011.08.019.165.023.254s.005.183,0,.281c0,.082-.01.164-.014.247s-.01.165-.014.247a1,1,0,0,0,.023.254.273.273,0,0,1,.024.082q0,.172-.009.368t-.03.4a.786.786,0,0,0,0,.2.805.805,0,0,1,0,.2q-.063.425-.122.873a1.854,1.854,0,0,1-.1.479.551.551,0,0,0-.05.166.565.565,0,0,1-.05.166,1.4,1.4,0,0,1-.15.241.4.4,0,0,0-.053.056.942.942,0,0,0-.062.168.42.42,0,0,1-.065.144,1.232,1.232,0,0,0-.19.21q-.04.067-.078.145a.346.346,0,0,0-.2.089c-.051.048-.1.1-.161.157q-.11.089-.208.176a1.046,1.046,0,0,1-.235.155,4.241,4.241,0,0,0-.4.191q-.217.116-.446.222a3.068,3.068,0,0,1-.437.2,1.974,1.974,0,0,1-.355.086.227.227,0,0,1-.144.02.534.534,0,0,0-.171,0q-.192.027-.394.068a1.324,1.324,0,0,1-.4.02,2.812,2.812,0,0,1-.294-.093,1.627,1.627,0,0,0-.342-.086,1.287,1.287,0,0,1-.241-.064q-.091-.036-.221-.091a1.029,1.029,0,0,1-.472-.227q-.281-.082-.315-.151a1.233,1.233,0,0,0-.193-.156,1.554,1.554,0,0,1-.221-.177,1.846,1.846,0,0,1-.369-.364,1.234,1.234,0,0,1-.256-.258.229.229,0,0,0-.161-.1q.136.446.264.831a6.932,6.932,0,0,1,.219.862l.061.432a.4.4,0,0,1-.25.047.8.8,0,0,0-.257,0q-.624.088-1.083.128a7.3,7.3,0,0,0-1,.165,2.534,2.534,0,0,0-.461.114,2.178,2.178,0,0,1-.56.1.656.656,0,0,0-.177.049q-.08.035-.121-.081-.017-.12.052-.154l.137-.068a.487.487,0,0,1,.22-.177q.189-.222.251-.3a1.566,1.566,0,0,0,.213-.226,1.081,1.081,0,0,1,.24-.205.946.946,0,0,0,.324-.217c.063-.074.129-.157.2-.248.041-.055.086-.11.136-.166a.742.742,0,0,0,.112-.162.371.371,0,0,0,.019-.211.679.679,0,0,1,.013-.259q.007-.123,0-.245c0-.081-.01-.161-.022-.242a1.618,1.618,0,0,0-.039-.19,1.3,1.3,0,0,1-.036-.166,1.147,1.147,0,0,0,0-.269c-.008,0-.014-.014-.019-.046a3.346,3.346,0,0,0-.035-.595q-.046-.324-.11-.608l-.081-.576q-.074-.527-.164-1.078t-.167-1.1a.667.667,0,0,1-.007-.133.681.681,0,0,0-.007-.134,1.29,1.29,0,0,0-.037-.178.965.965,0,0,1-.031-.13,1.149,1.149,0,0,1,.016-.235c.01-.042.02-.089.029-.139a1.738,1.738,0,0,0-.081-.576,1.677,1.677,0,0,0-.167-.319,1.015,1.015,0,0,1-.14-.3.462.462,0,0,1-.037-.178,1.144,1.144,0,0,0-.01-.158.464.464,0,0,0-.044-.14.539.539,0,0,1-.048-.165l-.044-.312a1.588,1.588,0,0,0-.111-.266.8.8,0,0,1-.087-.269.384.384,0,0,1-.027-.192.544.544,0,0,0,0-.171,2.856,2.856,0,0,0-.119-.5q-.085-.257-.149-.542l-.064-.456a4.593,4.593,0,0,0-.088-.452q-.061-.261-.144-.506a1.3,1.3,0,0,0-.23-.42,1.134,1.134,0,0,0-.232-.6q-.065-.113-.1-.158a.28.28,0,0,0-.157-.076q-.257-.086-.26-.11a1.4,1.4,0,0,0-.346-.025.536.536,0,0,1-.171,0,5.489,5.489,0,0,0-.671-.077q-.37-.021-.716-.046a.853.853,0,0,0-.207,0,.32.32,0,0,1-.187-.023.308.308,0,0,0-.154-.052q-.1-.01-.068-.137.007-.123.1-.087a.288.288,0,0,0,.207,0,.537.537,0,0,1,.2-.041,1.536,1.536,0,0,0,.322-.058,1.287,1.287,0,0,1,.47-.139,1.742,1.742,0,0,0,.291-.016q.264-.037.538-.088a4.583,4.583,0,0,1,.565-.067.738.738,0,0,0,.183,0,1.1,1.1,0,0,1,.207,0,1.623,1.623,0,0,1,.339-.023,1.053,1.053,0,0,1,.212.031,1.17,1.17,0,0,0,.188.035,3.113,3.113,0,0,0,.814-.127A4.239,4.239,0,0,1,307.339,413.218Zm3.14,11.2a.792.792,0,0,1-.033.2.586.586,0,0,0,0,.245.492.492,0,0,0,.181.329.808.808,0,0,0,.318.09.92.92,0,0,0,.427-.1.67.67,0,0,0,.153-.132.854.854,0,0,0,.18-.2.9.9,0,0,0,.181-.539,2.359,2.359,0,0,1-.131-.41.38.38,0,0,0-.046-.153.99.99,0,0,0-.321-.285q-.144-.065-.222-.1a.457.457,0,0,0-.226-.127l-.188-.035a.473.473,0,0,0-.173.073q-.1.064-.146.094a2.288,2.288,0,0,0-.365.186l-.2.138q-.155.12-.362.3a1.227,1.227,0,0,0-.3.361q-.083.281-.105.382t-.054.228a1.125,1.125,0,0,1-.023.187.516.516,0,0,0,0,.183,1.408,1.408,0,0,0,.172.441q.149.273.217.41a.681.681,0,0,0,.172.269q.067.04.176.122.277.231.32.273a.578.578,0,0,0,.173.1,1,1,0,0,0,.212.117,1.014,1.014,0,0,1,.212.117q.339.149.536.243a2.174,2.174,0,0,0,.375.143c.057.058.1.079.144.066a.116.116,0,0,1,.113.021q.353.073.479.1a1.629,1.629,0,0,0,.226.042,1.073,1.073,0,0,0,.154-.034.234.234,0,0,1,.134-.006.851.851,0,0,1,.158-.01.289.289,0,0,0,.267-.1.784.784,0,0,0,.106-.113.806.806,0,0,0,.187-.149.343.343,0,0,1,.05-.08.81.81,0,0,0,.187-.149.132.132,0,0,1,.053-.056,1.717,1.717,0,0,1,.184-.173,1.667,1.667,0,0,0,.184-.173q.1-.184.175-.318a1.254,1.254,0,0,0,.127-.312,1.838,1.838,0,0,0,.076-.414.871.871,0,0,1,.028-.236l.076-.157.076-.157a.3.3,0,0,0,.005-.135.751.751,0,0,1,0-.183,2.53,2.53,0,0,0-.009-.5,3.177,3.177,0,0,0-.081-.49,4.007,4.007,0,0,0-.132-.593,3.564,3.564,0,0,1-.122-.521,1.313,1.313,0,0,0-.086-.44q-.074-.173-.117-.314a1.574,1.574,0,0,1-.063-.358q-.022-.241-.1-.279l-.071-.333a1.7,1.7,0,0,1-.147-.346.269.269,0,0,0-.041-.116q-.051-.188-.1-.365a1.815,1.815,0,0,0-.118-.314,1.188,1.188,0,0,1-.112-.278.273.273,0,0,0-.041-.117,1.209,1.209,0,0,0-.4-.385q-.062-.089-.135-.177a.881.881,0,0,0-.128-.129,2.163,2.163,0,0,0-.337-.136.208.208,0,0,1-.1-.047,1.278,1.278,0,0,0-.425-.063.581.581,0,0,0-.211-.019.493.493,0,0,1-.159,0q-.35.122-.418.157a.6.6,0,0,0-.167.207c-.038.079-.083.163-.136.252a.786.786,0,0,0-.22.177q-.23.277-.294.347c-.042.047-.092.1-.149.155a1.746,1.746,0,0,1-.163.145.639.639,0,0,0-.118.114q-.237.23-.278.284a.52.52,0,0,0-.129.128.182.182,0,0,1-.064.07l-.213.226a.7.7,0,0,0-.2.3q-.234.253-.328.364t-.2.224a1.231,1.231,0,0,1-.137.154q-.076.072-.161.157c-.08.126-.115.2-.1.21a.04.04,0,0,1-.005.05,1.387,1.387,0,0,0-.086.342,2.184,2.184,0,0,0,.027.278q.03.387.089.721t.161.711c.08-.011.123-.05.13-.116a.306.306,0,0,1,.052-.154.459.459,0,0,1,.139-.227.459.459,0,0,0,.139-.228.824.824,0,0,0,.223-.154,1.555,1.555,0,0,1,.281-.26.3.3,0,0,0,.11-.089,1.614,1.614,0,0,0,.22-.178.95.95,0,0,1,.2-.15q.185-.075.194-.1a.192.192,0,0,1,.029-.053q.113-.065.274-.136a.912.912,0,0,1,.356-.075l.128.043.18.06a.8.8,0,0,0,.18.06.416.416,0,0,1,.156.064,1.108,1.108,0,0,1,.269.17,1.654,1.654,0,0,1,.227.225.221.221,0,0,1,.077.112.368.368,0,0,0,.08.135,4.346,4.346,0,0,1,.314.494q.072.162.135.348a.9.9,0,0,1,.042.385,1.677,1.677,0,0,1-.089.587,1.269,1.269,0,0,1-.229.46,1.558,1.558,0,0,1-.4.265,1.17,1.17,0,0,1-.547.114,1.013,1.013,0,0,1-.291-.069,2.881,2.881,0,0,0-.294-.093,1.492,1.492,0,0,1-.27-.1.425.425,0,0,1-.212-.2.216.216,0,0,1-.02-.144.9.9,0,0,0-.006-.219,1.8,1.8,0,0,0-.042-.214.376.376,0,0,1-.012-.17q.107-.284.136-.337a.931.931,0,0,1,.071-.108.231.231,0,0,0,.077-.145q.012-.087.135-.08a.423.423,0,0,1,.1.194,1.107,1.107,0,0,1,0,.207Z" transform="translate(-183.217 -250.803)" fill="#9d2061"/><path d="M349.223,415.152a2.442,2.442,0,0,1-.232.265,2.516,2.516,0,0,0-.232.265c-.126.149-.213.226-.261.232q-.124.164-.16.169a.134.134,0,0,0-.077.06l-.2.3q-.217.373-.389.715a1.712,1.712,0,0,1-.189.394.346.346,0,0,0-.028.151.334.334,0,0,1-.048.178,7.776,7.776,0,0,0-.092,1.432,1.392,1.392,0,0,0,.032.314,1.686,1.686,0,0,1,.035.337q0,.2-.009.368t-.033.372a3.047,3.047,0,0,0,.027.8,6.771,6.771,0,0,1,.085.868,3.238,3.238,0,0,1,.031.485,1.94,1.94,0,0,0,.056.481.806.806,0,0,0,.02.23.841.841,0,0,1,.034.154,1.894,1.894,0,0,1,.015.279c0,.107,0,.208-.006.307q.013.268.028.547t.055.567a4.383,4.383,0,0,0,.049.519l.069.492a.864.864,0,0,0,.04.288c.027.078.054.156.082.233a1.149,1.149,0,0,1,.054.212l.03.216a.385.385,0,0,0,.027.192,1.064,1.064,0,0,1,.051.189q.037.092.073.173a.771.771,0,0,1,.053.2,1.908,1.908,0,0,1,.015.279.8.8,0,0,0,.039.276,1.359,1.359,0,0,0,.061.26,1.246,1.246,0,0,1,.058.237,3.117,3.117,0,0,0,0,.49.854.854,0,0,1-.011.271.469.469,0,0,1,0,.147.393.393,0,0,0-.007.123,1.941,1.941,0,0,0,.031.485q.046.238.083.5,0,.2-.011.356a1.559,1.559,0,0,0,.013.353,1.546,1.546,0,0,1,.056.4.569.569,0,0,0,0,.159q-.021.2-.026.334t-.03.31a.24.24,0,0,0-.012.173.167.167,0,0,1-.016.149,2.448,2.448,0,0,0-.112.334.527.527,0,0,1-.022.1,1.883,1.883,0,0,0-.11.346.394.394,0,0,1-.041.14.9.9,0,0,1-.084.183.714.714,0,0,0-.081.207,1.074,1.074,0,0,0-.09.233.191.191,0,0,1-.014.075,3.979,3.979,0,0,0-.333.585q-.231.277-.251.3-.179.123-.185.161a.159.159,0,0,1-.028.065,1.433,1.433,0,0,0-.223.154q-.213.225-.287.309t-.16.169a1.164,1.164,0,0,0-.206.188.983.983,0,0,1-.161.157.933.933,0,0,0-.2.15,1.307,1.307,0,0,1-.175.147.654.654,0,0,1-.233.082,1.208,1.208,0,0,0-.237.058l-.2.114a.549.549,0,0,1-.187.063.764.764,0,0,1-.122,0,.847.847,0,0,0-.146.008,3.333,3.333,0,0,0-.493.057,3.437,3.437,0,0,1-.493.057l-.235-.016-.235-.016a.555.555,0,0,0-.262.049.366.366,0,0,1-.241.022,1.357,1.357,0,0,1-.291-.069q-.116-.045-.274-.121a2.077,2.077,0,0,1-.308-.1.279.279,0,0,0-.079-.038c-.087-.037-.173-.07-.258-.1s-.171-.054-.255-.074q-.288-.131-.551-.265-.134-.079-.228-.139t-.231-.163a3.338,3.338,0,0,1-.5-.529q-.167-.233-.318-.432-.144-.151-.188-.206c-.03-.037-.065-.085-.106-.144a.861.861,0,0,1-.147-.175c0-.016-.021-.038-.058-.065l-.154-.223a.607.607,0,0,1-.094-.232.218.218,0,0,0-.029-.118l-.246-.443q-.082-.148-.153-.309c-.043-.076-.076-.136-.1-.182a.413.413,0,0,1-.041-.117,1.3,1.3,0,0,1-.013-.182,1.255,1.255,0,0,0-.013-.182l-.051-.36-.047-.336a1.534,1.534,0,0,1-.016-.291q.032-.127.061-.265t.057-.289q.182-.27.433-.575l.209-.25c.131-.116.2-.172.221-.166a.04.04,0,0,0,.046-.019q.261-.233.35-.294a2.648,2.648,0,0,0,.406-.155,1.7,1.7,0,0,1,.242-.107,3.565,3.565,0,0,1,.428-.085,1.255,1.255,0,0,1,.391-.006q.352.073.6.111t.473.056a.457.457,0,0,0,.147,0,.164.164,0,0,1,.127.031.863.863,0,0,1,.166.05q.09.036.169.074a1.142,1.142,0,0,1,.513.172.345.345,0,0,0,.175.11.209.209,0,0,1,.116.045l.256.172a.284.284,0,0,0,.065.028,1.423,1.423,0,0,1,.233.09l.082.062a1.467,1.467,0,0,0,.2.131.4.4,0,0,1,.157.161.655.655,0,0,1,.132.067c.054.033.1.063.135.091a2.955,2.955,0,0,1,.25.209,2.291,2.291,0,0,1,.232.261.461.461,0,0,1,.1.108,1.092,1.092,0,0,1,.08.136,1.028,1.028,0,0,1,.007.134.463.463,0,0,0,.037.178.809.809,0,0,0,.034.154.676.676,0,0,1,.031.13.6.6,0,0,1-.038.164c-.018.043-.039.1-.062.168l-.059.277a.941.941,0,0,0-.1.222c-.016.059-.036.123-.059.192a1.077,1.077,0,0,0-.09.233.192.192,0,0,1-.014.075.629.629,0,0,1-.18.2q-.122.091-.232.179l-.083.109-.082.109a1.454,1.454,0,0,1-.742.288,2.056,2.056,0,0,1-.687-.014,1.177,1.177,0,0,0-.3-.117c-.007.009-.027.008-.062,0-.16-.092-.247-.133-.262-.122a.04.04,0,0,1-.05-.005q-.185-.1-.178-.134a.056.056,0,0,0-.02-.058,2.524,2.524,0,0,1-.53-.635.158.158,0,0,1-.053-.115.234.234,0,0,0-.056-.139.974.974,0,0,1-.019-.829,4.967,4.967,0,0,0,.265-.465.424.424,0,0,1,.2-.212q.233-.082.28-.1a.516.516,0,0,0,.091-.049q.26-.061.284-.064a1.614,1.614,0,0,0,.284.107,1.045,1.045,0,0,0,.173.184.13.13,0,0,1,.056.053,2.022,2.022,0,0,0,.256.343q.1.1-.014.161a.579.579,0,0,1-.129.3.1.1,0,0,1-.122,0,.14.14,0,0,1-.08-.135.347.347,0,0,0-.09-.207l-.145-.163a.2.2,0,0,0-.228-.054.819.819,0,0,0-.247.157,1.162,1.162,0,0,0-.231.448.822.822,0,0,0-.025.517,1.484,1.484,0,0,0,.221.532.283.283,0,0,0,.142.139.4.4,0,0,1,.166.136,4.235,4.235,0,0,1,.546.058,1.349,1.349,0,0,0,.536-.014.8.8,0,0,0,.348-.135q.156-.108.331-.254a.181.181,0,0,1,.093-.123.3.3,0,0,0,.117-.126.345.345,0,0,0,0-.147.425.425,0,0,1,.021-.2,1.3,1.3,0,0,0,.138-.5q-.024-.083-.1-.267a1.158,1.158,0,0,1-.056-.225.59.59,0,0,0-.049-.176.936.936,0,0,0-.348-.391q-.213-.117-.24-.138a.75.75,0,0,1-.291-.155,1.493,1.493,0,0,0-.161-.1.477.477,0,0,1-.167-.148q-.206-.069-.4-.127t-.421-.124l-.205-.069-.205-.069a.646.646,0,0,1-.236-.114.431.431,0,0,0-.257-.086l-.216.03a1.255,1.255,0,0,1-.243.01.912.912,0,0,1-.219.006.8.8,0,0,0-.2,0l-.2.029a.456.456,0,0,0-.177.049.568.568,0,0,0-.167.207q-.078.145-.157.279a2.409,2.409,0,0,0-.213.483,1.083,1.083,0,0,0,.053.641,1.457,1.457,0,0,0,.177.391,1.476,1.476,0,0,1,.177.391,3.589,3.589,0,0,0,.174.367q.1.182.2.412a.3.3,0,0,1,.072.161.425.425,0,0,0,.075.185,4.989,4.989,0,0,0,.355.611q.15.2.143.237a.11.11,0,0,0,.024.082.511.511,0,0,1,.174.2.529.529,0,0,0,.1.158q.167.147.159.173a.039.039,0,0,0,.019.046,1.746,1.746,0,0,0,.51.234q.267.072.52.135.1.034.193.071t.193.071a1.225,1.225,0,0,0,.246.1q.14.041.243.076a.745.745,0,0,0,.252.05,1.792,1.792,0,0,1,.3.043q.2.021.375.057a.408.408,0,0,0,.351-.111,1.565,1.565,0,0,1,.135-.08,2.084,2.084,0,0,0,.18-.111.548.548,0,0,1,.1-.1.587.587,0,0,0,.1-.1.37.37,0,0,1,.147-.082.232.232,0,0,0,.124-.079.547.547,0,0,0,.149-.156.485.485,0,0,1,.173-.159q.11-.089.261-.232t.258-.257c.027-.037.058-.081.091-.135s.07-.108.112-.162q.058-.106.127-.226t.148-.253a1.851,1.851,0,0,1,.145-.705.189.189,0,0,0-.019-.132.126.126,0,0,1,.005-.135q.028-.151.05-.337t.04-.409c.009-.05.017-.109.024-.175s.013-.141.018-.223q.01-.1.021-.2c.007-.066.014-.133.021-.2a1.041,1.041,0,0,1-.049-.262,1.591,1.591,0,0,1,.009-.2,4.7,4.7,0,0,0-.047-.507l-.067-.48a6.838,6.838,0,0,1-.065-.725q-.011-.341-.034-.68l-.037-.264a1.224,1.224,0,0,1-.01-.243,3.06,3.06,0,0,0-.028-.375q-.025-.18-.038-.447a.306.306,0,0,0,.005-.135.3.3,0,0,1,.005-.135,1.6,1.6,0,0,0-.04-.459.581.581,0,0,1-.034-.24l-.033-.411a.71.71,0,0,0-.052-.286.6.6,0,0,1-.032-.313c-.085-.02-.133.011-.146.094s-.029.167-.05.252c-.076.157-.121.246-.134.263a.284.284,0,0,0-.038.079l-.371.493c-.041.055-.082.113-.122.176a.533.533,0,0,1-.149.155.765.765,0,0,0-.216.2.155.155,0,0,1-.062.082q-.182.1-.388.2a1.348,1.348,0,0,1-.458.138,2.3,2.3,0,0,1-.5.021c-.066-.007-.137-.017-.212-.031l-.264-.049a1.066,1.066,0,0,0-.2,0,.551.551,0,0,1-.2-.021.246.246,0,0,0-.152-.04.383.383,0,0,1-.176-.036,1.325,1.325,0,0,1-.322-.2q-.219-.165-.291-.155a.724.724,0,0,1-.163-.112c-.056-.049-.1-.087-.138-.115a.637.637,0,0,0-.138-.115c-.054-.033-.1-.063-.135-.091a2.121,2.121,0,0,1-.16-.271.072.072,0,0,0-.031-.045l-.229-.237a.2.2,0,0,1-.056-.139.2.2,0,0,0-.056-.139,1.224,1.224,0,0,0-.222-.36,2.524,2.524,0,0,1-.223-.543q-.056-.224-.138-.458a2.557,2.557,0,0,1-.118-.314,1.968,1.968,0,0,1-.066-.3.533.533,0,0,1,0-.171.637.637,0,0,0,0-.2.458.458,0,0,1,0-.147.541.541,0,0,0,0-.171.7.7,0,0,0-.189-.3,1.2,1.2,0,0,1-.207-.252,1.076,1.076,0,0,1-.059-.248l-.039-.276c0-.114,0-.22,0-.319a2.5,2.5,0,0,0-.03-.387,6.558,6.558,0,0,0-.178-.66,3.2,3.2,0,0,1-.14-.739l-.027-.192a1.564,1.564,0,0,0-.058-.237,3.51,3.51,0,0,0-.262-.648l-.334-.638q-.065-.113-.143-.237a.429.429,0,0,0-.157-.161.181.181,0,0,0-.139-.029.275.275,0,0,1-.163-.026c-.1-.018-.2-.034-.288-.045s-.2-.024-.336-.039a.5.5,0,0,0-.159,0,.3.3,0,0,1-.135-.005q-.263-.134-.284-.107a.069.069,0,0,1-.045.031.73.73,0,0,0-.339-.148,2.95,2.95,0,0,1-.3-.055q.254-.109.312-.13a.557.557,0,0,1,.106-.027.759.759,0,0,1,.226-.044.572.572,0,0,0,.2-.041.951.951,0,0,0,.312-.129.116.116,0,0,1,.079-.048,1.148,1.148,0,0,1,.213-.054l.192-.027q.188-.051.355-.087t.355-.087a2.018,2.018,0,0,1,.358-.062,2.389,2.389,0,0,0,.242-.022l.432-.061a1.951,1.951,0,0,1,.3.032.906.906,0,0,0,.295.007,1.657,1.657,0,0,0,.35-.037q.178-.037.343-.085a.86.86,0,0,1,.3-.006c.059.016.114.029.164.038l.252-.035a.677.677,0,0,0,.245-.083.448.448,0,0,0,.211.019.86.86,0,0,1,.207,0,.112.112,0,0,1,.008.146c-.033.054-.064.1-.091.135q-.159.267-.22.349a.956.956,0,0,0-.1.161l-.138.239a.2.2,0,0,0-.053.142.151.151,0,0,1-.033.115,1.71,1.71,0,0,1-.11.346,1.478,1.478,0,0,0-.107.37.686.686,0,0,0,.006.305,1.216,1.216,0,0,1,.016.377.457.457,0,0,1-.011.185.458.458,0,0,0-.011.185,2.028,2.028,0,0,0,.052.543,2.064,2.064,0,0,1,.052.543,4.889,4.889,0,0,1,0,.514,4.725,4.725,0,0,0,0,.514c.016.112.036.227.061.346s.054.241.088.367a.646.646,0,0,0,.049.176.775.775,0,0,1,.053.2q.064.284.11.523a1.036,1.036,0,0,0,.2.437,1.292,1.292,0,0,1,.225.555,2.744,2.744,0,0,1,.117.314q.046.153.121.338a.267.267,0,0,1,.119.154.457.457,0,0,0,.044.14,1.015,1.015,0,0,0,.229.237,2.368,2.368,0,0,1,.28.254,1.9,1.9,0,0,1,.195.168.6.6,0,0,0,.164.124.4.4,0,0,0,.185.1l.205.069a2.378,2.378,0,0,0,.317-.008,1.243,1.243,0,0,0,.31-.056,1.018,1.018,0,0,0,.349-.306,3.171,3.171,0,0,0,.3-.446.828.828,0,0,1,.112-.162.41.41,0,0,0,.084-.183,1.844,1.844,0,0,0,.115-.31c.015-.067.027-.126.036-.176a1.167,1.167,0,0,0,.074-.341q.019-.21.044-.385a1.045,1.045,0,0,1,.031-.212c.016-.059.029-.114.038-.164a1.146,1.146,0,0,0-.034-.154.227.227,0,0,1-.007-.134.841.841,0,0,1,0-.245,2.2,2.2,0,0,0,.023-.272q.014-.246.02-.468c0-.147.011-.3.023-.443a1.422,1.422,0,0,1,0-.293,1.35,1.35,0,0,0,0-.269q.011-.271,0-.55t-.031-.57q-.014-.267-.054-.555t-.057-.579q.007-.123.011-.271a2.11,2.11,0,0,0-.023-.339.738.738,0,0,1-.042-.214.168.168,0,0,0,0-.074,1.044,1.044,0,0,0-.036-.166,1.014,1.014,0,0,1-.035-.166q-.047-.336-.069-.663a1.424,1.424,0,0,0-.155-.578.8.8,0,0,0-.209-.179.511.511,0,0,1-.15-.113.881.881,0,0,0-.292-.338,1.031,1.031,0,0,1-.244-.174c0-.2.06-.294.167-.293a2.132,2.132,0,0,0,.327-.021.871.871,0,0,0,.254-.023.9.9,0,0,1,.254-.023,2.16,2.16,0,0,1,.334.026,1.183,1.183,0,0,0,.355,0,1.292,1.292,0,0,0,.307-.08l.324-.131a.635.635,0,0,1,.2-.041,1.15,1.15,0,0,0,.274-.051.524.524,0,0,1,.26-.061,1.222,1.222,0,0,0,.243-.01,1.045,1.045,0,0,1,.25-.047.048.048,0,0,0,.038.007,2.174,2.174,0,0,1,.674-.168Q348.959,415.19,349.223,415.152Z" transform="translate(-204.055 -251.977)" fill="#9d2061"/><path d="M388.2,417.538a7.012,7.012,0,0,0,3.589.477c2.091-.288,3.161-1.6,2.921-3.275-.22-1.533-1.264-2.32-3.38-2.925-2.462-.623-4.422-1.839-4.746-4.1-.366-2.555,1.427-4.731,4.532-5.159a6.94,6.94,0,0,1,3.42.285l-.319,1.79a5.682,5.682,0,0,0-2.937-.329c-2.118.292-2.778,1.721-2.616,2.853.225,1.568,1.31,2.16,3.559,2.819,2.784.835,4.264,2.058,4.586,4.307.378,2.636-1.27,5.006-4.873,5.5a7.931,7.931,0,0,1-4.011-.44Z" transform="translate(-234.613 -244.271)" fill="#9d2061"/><path d="M429.48,405.516c.836,5.835-1.876,9.105-5.7,9.633-3.974.548-7.181-2.332-7.922-7.5-.762-5.32,1.686-9.026,5.722-9.582C425.668,397.5,428.76,400.486,429.48,405.516Zm-11.417,1.794c.5,3.5,2.541,6.526,5.592,6.106,3.075-.424,4.14-3.9,3.623-7.511-.463-3.234-2.366-6.552-5.562-6.111-3.173.437-4.16,3.974-3.653,7.517Z" transform="translate(-252.322 -241.564)" fill="#9d2061"/><path d="M456.909,409.63l-2.372-16.555,2.222-.306,5.886,7.537a54.674,54.674,0,0,1,3.544,5.122l.051-.026c-.518-2.3-.865-4.35-1.245-7l-.95-6.634,1.957-.27,2.372,16.555-2.094.289-5.9-7.613a50.875,50.875,0,0,1-3.6-5.18l-.065.027c.44,2.114.765,4.136,1.192,7.112l.956,6.676Z" transform="translate(-275.884 -237.618)" fill="#9d2061"/><path d="M494.882,389.5l2.372,16.555-2.11.291-2.372-16.555Z" transform="translate(-299.091 -236.41)" fill="#9d2061"/><path d="M140.951,115.071l-1.36-.392A101.8,101.8,0,0,1,322.147,86.591l-1.178.784a100.383,100.383,0,0,0-180.018,27.7Z" transform="translate(-84.728 -24.984)" fill="#010101"/><path d="M129.09,109.189l-1.367-.366A106.043,106.043,0,0,1,319.537,79.28l-1.193.762A104.628,104.628,0,0,0,129.09,109.189Z" transform="translate(-77.525 -18.376)" fill="#010101"/><path d="M249.216,429.4a101.629,101.629,0,0,1-90.11-54.431l1.252-.659A100.375,100.375,0,0,0,347.99,345.424l1.393.25A101.64,101.64,0,0,1,249.216,429.4Z" transform="translate(-96.572 -209.655)" fill="#010101"/><path d="M242.3,432.632a105.675,105.675,0,0,1-94.547-58.03l1.261-.643A104.632,104.632,0,0,0,345.53,343.7l1.4.229A106.063,106.063,0,0,1,242.3,432.632Z" transform="translate(-89.682 -208.61)" fill="#010101"/><path d="M248.516,428.3a101.6,101.6,0,0,1-90.105-54.442l-.462-.878.981-.151L348.851,343.6l-.175.975A101.622,101.622,0,0,1,248.516,428.3Zm-88.385-54.224A100.364,100.364,0,0,0,347.1,345.3Z" transform="translate(-95.87 -208.549)" fill="#010101"/><path d="M138.8,115.741l.307-1.064a101.784,101.784,0,0,1,182.554-28.1l.615.923Zm98.094-73.186A100.827,100.827,0,0,0,140.781,114l179.081-27.56a100.243,100.243,0,0,0-82.968-43.889Z" transform="translate(-84.247 -24.969)" fill="#010101"/><path d="M627.491,222.9l-.215-1.4,24.27-3.617a4.774,4.774,0,0,0,3.993-5.433L645.732,148.8A4.774,4.774,0,0,0,640.3,144.8l-27.937,4.177-.215-1.4,27.938-4.177a6.19,6.19,0,0,1,7.047,5.177l9.807,63.656a6.19,6.19,0,0,1-5.176,7.048Z" transform="translate(-371.545 -86.997)" fill="#010101"/><path d="M49.172,309.747a6.184,6.184,0,0,1-6.114-5.252l-9.781-63.654a6.176,6.176,0,0,1,5.177-7.048L71.639,228.8l.215,1.4-33.185,4.992a4.761,4.761,0,0,0-3.993,5.434l9.781,63.655a4.727,4.727,0,0,0,1.9,3.128,4.78,4.78,0,0,0,3.564.865l29.542-4.432.215,1.4-29.542,4.432A6.332,6.332,0,0,1,49.172,309.747Z" transform="translate(-20.156 -138.872)" fill="#010101"/><rect width="191.18" height="1.415" transform="translate(63.055 164.303) rotate(-8.763)" fill="#010101"/><rect width="183.42" height="1.415" transform="translate(55.433 89.174) rotate(-8.735)" fill="#010101"/><path d="M347.393,69.449c-.329-.313-2.262-5.3,3.093-5.625,0,0,2.512,2.584,2.142,4.016S347.393,69.449,347.393,69.449Z" transform="translate(-210.484 -38.738)" fill="#d31c5c"/><path d="M327.951,143.037s2.877-.118,4.1-1.966a.18.18,0,0,1,.24-.07c1.237.647,9.4,2.452,10.069-6.319.215-2.886,3.541,8.883,12.667,2.011a3.006,3.006,0,0,1,1.154-.546,16.015,16.015,0,0,0,3.621-1.205l.351,11.915c-8.211,12.5-29.176,7.524-28.677,6.229L328.18,143.7" transform="translate(-199.053 -81.464)" fill="#d31c5c"/><path d="M340.414,154.749c-4.517,0-8.347-.859-9.867-1.64-.678-.349-.881-.724-.889-1.042l-3.24-9.232a3.254,3.254,0,0,0-.228-1.133.707.707,0,0,1,.637-.471c.05,0,2.54-.139,3.536-1.649a.893.893,0,0,1,1.169-.3,7.853,7.853,0,0,0,6.122-.229c1.719-.954,2.7-2.811,2.9-5.522.017-.221.067-.9.659-1.082.626-.194,1.039.32,1.659,1.1,1.653,2.07,4.729,5.925,10.628,1.484a3.7,3.7,0,0,1,1.43-.673,15.482,15.482,0,0,0,3.451-1.145l.994-.5.39,13.252-.122.187C355.223,152.882,347.073,154.749,340.414,154.749Zm-9.356-2.967c.991.67,6.726,2.093,13.146,1.364,4.46-.505,10.509-2.236,14.139-7.594l-.314-10.636a18.865,18.865,0,0,1-2.795.823,2.3,2.3,0,0,0-.881.422c-6.851,5.159-10.885.388-12.484-1.61-.393,2.728-1.578,4.656-3.528,5.737a9.285,9.285,0,0,1-7.05.419,5.9,5.9,0,0,1-3.48,1.821Zm-.191-11.253.019.01Z" transform="translate(-197.96 -80.364)" fill="#010101"/><path d="M370.072,107.978a.844.844,0,0,1-.386-1.595c.723-.371,1.595-.966,1.638-1.693.03-.5-.309-1.606-2.914-3.363a1.2,1.2,0,0,1-.492-.843,1.055,1.055,0,0,1,.265-.8,4.768,4.768,0,0,0-.883-3.835c-1.731-2.711-6.874-6.9-21.9-4.469a.844.844,0,1,1-.269-1.666c16.529-2.672,22.05,2.421,23.868,5.7a6.2,6.2,0,0,1,.778,4.817c2.245,1.588,3.317,3.095,3.229,4.566-.073,1.222-.932,2.263-2.552,3.094A.845.845,0,0,1,370.072,107.978Zm-.61-7.2-.014.015Z" transform="translate(-209.051 -53.997)" fill="#010101"/><path d="M319.486,138.752a.835.835,0,0,1-.16-.016c-2.636-.509-4.4-1.7-5.237-3.536-1.643-3.594,1-8.252,1.114-8.449a.844.844,0,0,1,1.462.842c-.023.041-2.323,4.109-1.04,6.909.6,1.311,1.954,2.178,4.021,2.576a.844.844,0,0,1-.159,1.672Z" transform="translate(-190.313 -76.676)" fill="#010101"/><path d="M396.782,128.669a.843.843,0,0,1-.648-1.383l1.095-1.315a.843.843,0,1,1,1.3,1.079l-1.095,1.315a.84.84,0,0,1-.648.3Z" transform="translate(-240.318 -76.274)" fill="#010101"/><path d="M376.554,128.247a.841.841,0,0,1-.579-.23l-1.8-1.7a.844.844,0,0,1,1.159-1.227l1.8,1.7a.844.844,0,0,1-.579,1.457Z" transform="translate(-226.949 -75.786)" fill="#010101"/><path d="M350.513,138.17a.858.858,0,0,1-.2-.025l-2.535-.624a.844.844,0,1,1,.4-1.638l2.536.624a.844.844,0,0,1-.2,1.663Z" transform="translate(-210.695 -82.459)" fill="#010101"/><path d="M338.733,124.052a.843.843,0,0,1-.665-1.362l1.731-2.225a.844.844,0,1,1,1.332,1.036l-1.731,2.225A.842.842,0,0,1,338.733,124.052Z" transform="translate(-205.085 -72.919)" fill="#010101"/><path d="M327.852,139.479a.84.84,0,0,1-.634-.286l-1.568-1.783a.844.844,0,0,1,1.267-1.114l1.568,1.783a.844.844,0,0,1-.633,1.4Z" transform="translate(-197.529 -82.551)" fill="#010101"/><path d="M342.565,102.679l-.068,0-2.158-.173a.843.843,0,0,1,.135-1.681l2.157.173a.843.843,0,0,1-.066,1.684Z" transform="translate(-206.1 -61.192)" fill="#010101"/><path d="M375.116,102.646a.844.844,0,0,1-.809-1.082l.688-2.334a.844.844,0,1,1,1.618.477l-.688,2.334A.844.844,0,0,1,375.116,102.646Z" transform="translate(-227.167 -59.86)" fill="#010101"/><path d="M368.684,78.657a.838.838,0,0,1-.5-.166,13.572,13.572,0,0,0-6.893-2.89.844.844,0,1,1,.136-1.681,15.206,15.206,0,0,1,7.762,3.217.844.844,0,0,1-.5,1.521Z" transform="translate(-218.816 -44.863)" fill="#010101"/><path d="M322.641,94.812a1,1,0,0,1-.157-.012.975.975,0,0,1-.687-.47c-1.62-2.763-1.878-7.158,2.726-10.452a.36.36,0,0,0,.119-.171,14.935,14.935,0,0,1,5.12-6.045,11.479,11.479,0,0,1,1.73-1.01.843.843,0,1,1,.715,1.528,9.837,9.837,0,0,0-1.479.866,13.509,13.509,0,0,0-4.5,5.239,2.033,2.033,0,0,1-.722.965c-3.857,2.76-3.295,5.877-2.63,7.47,6.382-4.987,14.418-2.677,19.8-1.13,2.6.749,5.069,1.459,5.878.893a.844.844,0,1,1,.963,1.386c-1.469,1.02-3.918.316-7.308-.658-5.537-1.592-13.121-3.772-18.913,1.352A.994.994,0,0,1,322.641,94.812Zm.611-1.337Z" transform="translate(-194.67 -46.475)" fill="#010101"/><path d="M348.818,68.658l-.741-1.516a11.138,11.138,0,0,1,4.715-1.158c-.41-1.81-1.171-3.067-2.188-3.586l.768-1.5c1.2.613,2.74,2.124,3.272,5.842l.148,1.042-1.049-.081A9.391,9.391,0,0,0,348.818,68.658Z" transform="translate(-211.268 -36.961)" fill="#010101"/><path d="M341.539,68.985a.84.84,0,0,1-.64-.293,5.354,5.354,0,0,1-.462-7.024A4.545,4.545,0,0,1,346.07,60.2a.843.843,0,1,1-.766,1.5,2.907,2.907,0,0,0-3.54,1.011c-.873,1.112-1.223,2.978.414,4.882a.843.843,0,0,1-.639,1.394Z" transform="translate(-205.967 -36.262)" fill="#010101"/><path d="M344.647,167.1a.844.844,0,0,1-.8-.587l-2.249-7.023a.843.843,0,0,1,1.606-.514L345.451,166a.845.845,0,0,1-.8,1.1Z" transform="translate(-207.309 -96.135)" fill="#010101"/><path d="M357.932,166.436a.845.845,0,0,1-.822-.66l-1.474-6.574a.844.844,0,0,1,1.647-.369l1.474,6.574a.844.844,0,0,1-.639,1.008A.854.854,0,0,1,357.932,166.436Z" transform="translate(-215.843 -96.004)" fill="#010101"/><path d="M371.214,164.824a.844.844,0,0,1-.823-.662l-1.426-6.446a.844.844,0,1,1,1.648-.364l1.426,6.446a.844.844,0,0,1-.642,1.006A.864.864,0,0,1,371.214,164.824Z" transform="translate(-223.934 -95.103)" fill="#010101"/><path d="M384.123,161.493a.845.845,0,0,1-.828-.687l-1.217-6.441a.844.844,0,0,1,1.659-.313l1.217,6.441a.846.846,0,0,1-.83,1Z" transform="translate(-231.896 -93.084)" fill="#010101"/><path d="M396.979,156.833a.845.845,0,0,1-.835-.725l-.976-6.9a.844.844,0,0,1,1.671-.236l.976,6.9a.844.844,0,0,1-.718.953.869.869,0,0,1-.119.008Z" transform="translate(-239.845 -89.978)" fill="#010101"/></g></g></svg>